<svg style="position: absolute; width: 0; height: 0;" width="0" height="0" version="1.1" xmlns="http://www.w3.org/2000/svg" xmlns:xlink="http://www.w3.org/1999/xlink">
<defs>
<symbol id="icon-patch" viewBox="0 0 32 32">
<title>patch</title>
<path class="path1" d="M22.242 0h-16.106c-1.081 0-1.962 0.881-1.962 1.962v28.075c0 1.083 0.881 1.963 1.962 1.963h19.728c1.082 0 1.962-0.88 1.962-1.963v-23.969l-5.584-6.068zM22.705 2.937l2.448 2.66h-2.448v-2.66zM26.178 30.037c0 0.173-0.142 0.315-0.315 0.315h-19.727c-0.173 0-0.314-0.142-0.314-0.315v-28.075c0-0.173 0.141-0.314 0.314-0.314h14.92v4.772c0 0.454 0.37 0.823 0.825 0.823h4.297v22.794zM8.729 8.765h13.994c0.341 0 0.617 0.277 0.617 0.617s-0.276 0.617-0.617 0.617h-13.993c-0.341 0-0.617-0.277-0.617-0.617s0.277-0.617 0.617-0.617zM23.34 13.531c0 0.341-0.276 0.617-0.617 0.617h-13.993c-0.341 0-0.617-0.277-0.617-0.617s0.277-0.617 0.617-0.617h13.994c0.341 0 0.617 0.277 0.617 0.617zM23.34 17.544c0 0.341-0.276 0.617-0.617 0.617h-13.993c-0.341 0-0.617-0.276-0.617-0.617s0.277-0.617 0.617-0.617h13.994c0.341 0 0.617 0.276 0.617 0.617zM23.34 21.625c0 0.341-0.276 0.617-0.617 0.617h-13.993c-0.341 0-0.617-0.276-0.617-0.617s0.277-0.617 0.617-0.617h13.994c0.341 0 0.617 0.276 0.617 0.617z"></path>
</symbol>
<symbol id="icon-conection-plug" viewBox="0 0 32 32">
<title>conection-plug</title>
<path class="path1" d="M19.293 40.986c-4.683 4.072-12.397 2.896-15.878-1.107s-3.576-11.806 1.107-15.878l0.974-0.847-1.79-2.058c-0.22-0.253-0.193-0.636 0.060-0.855l13.479-11.722c0.253-0.22 0.636-0.193 0.855 0.060l0.693 0.796 7.277-6.328c-0.112-0.158-0.142-0.362-0.078-0.547 0.071-0.205 0.245-0.356 0.457-0.398l4.332-0.843c0.213-0.042 0.431 0.034 0.573 0.197s0.186 0.39 0.116 0.595l-1.436 4.174c-0.071 0.205-0.245 0.356-0.457 0.398-0.193 0.037-0.39-0.021-0.531-0.153l-7.277 6.328 0.693 0.796c0.22 0.253 0.193 0.636-0.060 0.855l-13.479 11.722c-0.253 0.22-0.636 0.193-0.855-0.060l-1.776-2.042-0.974 0.847c-4.178 3.634-4.621 9.989-0.987 14.168s9.979 4.61 14.167 0.988c5.32-3.466 0.796 0.915 0.796 0.915zM8.585 24.858l12.564-10.926-3.566-4.101-12.564 10.926 1.72 1.977c0.028 0.022 0.053 0.047 0.077 0.075s0.045 0.057 0.063 0.087zM27.711 3.090l1.518 1.746 0.753-2.188zM27.321 6.361l0.927-0.806-1.385-1.593-0.927 0.806zM22.854 10.246l3.552-3.089-1.385-1.593-3.552 3.089zM20.973 11.881l0.966-0.84-1.385-1.593-0.966 0.84z"></path>
</symbol>
<symbol id="icon-configurations" viewBox="0 0 32 32">
<title>configurations</title>
<path class="path1" d="M30.238 3.87h-28.475c-0.972 0-1.762 0.791-1.762 1.762v20.734c0 0.972 0.791 1.762 1.762 1.762h28.475c0.972 0 1.762-0.791 1.762-1.762v-20.734c0-0.972-0.791-1.762-1.762-1.762zM30.963 26.367c0 0.4-0.326 0.726-0.726 0.726h-28.475c-0.4 0-0.726-0.326-0.726-0.726v-20.734c0-0.4 0.326-0.726 0.726-0.726h28.475c0.4 0 0.726 0.326 0.726 0.726v20.734z"></path>
<path class="path2" d="M12.13 14.376c-0.286 0-0.518 0.232-0.518 0.518v9.4c0 0.286 0.232 0.518 0.518 0.518s0.518-0.232 0.518-0.518v-9.4c0-0.286-0.232-0.518-0.518-0.518z"></path>
<path class="path3" d="M14.307 11.577c0-0.896-0.729-1.624-1.624-1.624h-0.035v-2.246c0-0.286-0.232-0.518-0.518-0.518s-0.518 0.232-0.518 0.518v2.246h-0.035c-0.896 0-1.624 0.729-1.624 1.624s0.729 1.624 1.624 1.624h1.106c0.896 0 1.624-0.729 1.624-1.624zM12.682 12.164h-1.106c-0.324 0-0.587-0.264-0.587-0.587s0.264-0.587 0.587-0.587h1.106c0.324 0 0.587 0.264 0.587 0.587s-0.264 0.587-0.587 0.587z"></path>
<path class="path4" d="M19.87 13.27c-0.286 0-0.518 0.232-0.518 0.518v10.505c0 0.286 0.232 0.518 0.518 0.518s0.518-0.232 0.518-0.518v-10.505c0-0.286-0.232-0.518-0.518-0.518z"></path>
<path class="path5" d="M22.048 9.918c0-0.896-0.729-1.624-1.624-1.624h-0.035v-0.587c0-0.286-0.232-0.518-0.518-0.518s-0.518 0.232-0.518 0.518v0.587h-0.035c-0.896 0-1.624 0.729-1.624 1.624s0.729 1.624 1.624 1.624h1.106c0.896 0 1.624-0.729 1.624-1.624zM20.423 10.505h-1.106c-0.324 0-0.587-0.264-0.587-0.587s0.264-0.587 0.587-0.587h1.106c0.324 0 0.587 0.264 0.587 0.587s-0.264 0.587-0.587 0.587z"></path>
<path class="path6" d="M4.389 13.27c-0.286 0-0.518 0.232-0.518 0.518v10.505c0 0.286 0.232 0.518 0.518 0.518s0.518-0.232 0.518-0.518v-10.505c0-0.286-0.232-0.518-0.518-0.518z"></path>
<path class="path7" d="M6.566 10.471c0-0.896-0.729-1.624-1.624-1.624h-0.035v-1.14c0-0.286-0.232-0.518-0.518-0.518s-0.518 0.232-0.518 0.518v1.14h-0.035c-0.896 0-1.624 0.729-1.624 1.624s0.729 1.624 1.624 1.624h1.106c0.896 0 1.624-0.729 1.624-1.624zM4.942 11.058h-1.106c-0.324 0-0.587-0.264-0.587-0.587s0.264-0.587 0.587-0.587h1.106c0.324 0 0.587 0.264 0.587 0.587s-0.264 0.587-0.587 0.587z"></path>
<path class="path8" d="M16 23.222c-0.286 0-0.518 0.232-0.518 0.518v0.553c0 0.286 0.232 0.518 0.518 0.518s0.518-0.232 0.518-0.518v-0.553c0-0.286-0.232-0.518-0.518-0.518z"></path>
<path class="path9" d="M16.553 18.799h-0.035v-11.093c0-0.286-0.232-0.518-0.518-0.518s-0.518 0.232-0.518 0.518v11.093h-0.035c-0.896 0-1.624 0.729-1.624 1.624s0.729 1.624 1.624 1.624h1.106c0.896 0 1.624-0.729 1.624-1.624s-0.729-1.624-1.624-1.624zM16.553 21.011h-1.106c-0.324 0-0.587-0.264-0.587-0.587s0.264-0.587 0.587-0.587h1.106c0.324 0 0.587 0.264 0.587 0.587s-0.264 0.587-0.587 0.587z"></path>
<path class="path10" d="M27.611 16.035c-0.286 0-0.518 0.232-0.518 0.518v7.741c0 0.286 0.232 0.518 0.518 0.518s0.518-0.232 0.518-0.518v-7.741c0-0.286-0.232-0.518-0.518-0.518z"></path>
<path class="path11" d="M28.164 11.611h-0.035v-3.905c0-0.286-0.232-0.518-0.518-0.518s-0.518 0.232-0.518 0.518v3.905h-0.035c-0.896 0-1.624 0.729-1.624 1.624s0.729 1.624 1.624 1.624h1.106c0.896 0 1.624-0.729 1.624-1.624s-0.729-1.624-1.624-1.624zM28.164 13.823h-1.106c-0.324 0-0.587-0.264-0.587-0.587s0.264-0.587 0.587-0.587h1.106c0.324 0 0.587 0.264 0.587 0.587s-0.264 0.587-0.587 0.587z"></path>
<path class="path12" d="M23.741 22.117c-0.286 0-0.518 0.232-0.518 0.518v1.659c0 0.286 0.232 0.518 0.518 0.518s0.518-0.232 0.518-0.518v-1.659c0-0.286-0.232-0.518-0.518-0.518z"></path>
<path class="path13" d="M24.294 17.693h-0.035v-9.987c0-0.286-0.232-0.518-0.518-0.518s-0.518 0.232-0.518 0.518v9.987h-0.035c-0.896 0-1.624 0.729-1.624 1.624s0.729 1.624 1.624 1.624h1.106c0.896 0 1.624-0.729 1.624-1.624s-0.729-1.624-1.624-1.624zM24.294 19.905h-1.106c-0.324 0-0.587-0.264-0.587-0.587s0.264-0.587 0.587-0.587h1.106c0.324 0 0.587 0.264 0.587 0.587s-0.264 0.587-0.587 0.587z"></path>
<path class="path14" d="M8.259 20.458c-0.286 0-0.518 0.232-0.518 0.518v3.317c0 0.286 0.232 0.518 0.518 0.518s0.518-0.232 0.518-0.518v-3.317c0-0.286-0.232-0.518-0.518-0.518z"></path>
<path class="path15" d="M8.812 16.035h-0.035v-8.328c0-0.286-0.232-0.518-0.518-0.518s-0.518 0.232-0.518 0.518v8.328h-0.035c-0.896 0-1.624 0.729-1.624 1.624s0.729 1.624 1.624 1.624h1.106c0.896 0 1.624-0.729 1.624-1.624s-0.729-1.624-1.624-1.624zM8.812 18.246h-1.106c-0.324 0-0.587-0.264-0.587-0.587s0.264-0.587 0.587-0.587h1.106c0.324 0 0.587 0.264 0.587 0.587s-0.264 0.587-0.587 0.587z"></path>
</symbol>
<symbol id="icon-folders" viewBox="0 0 32 32">
<title>folders</title>
<path class="path1" d="M0.651 4.425c0.36 0 0.651-0.292 0.651-0.651 0-1.005 0.817-1.822 1.822-1.822h5.825l4.585 5.008c0.123 0.135 0.298 0.212 0.48 0.212h14.861c1.005 0 1.822 0.817 1.822 1.822 0 0.36 0.292 0.651 0.651 0.651s0.651-0.292 0.651-0.651c0-1.723-1.401-3.124-3.124-3.124h-14.574l-4.585-5.008c-0.123-0.135-0.298-0.212-0.48-0.212h-6.112c-1.723 0-3.124 1.401-3.124 3.124 0 0.36 0.292 0.651 0.651 0.651z"></path>
<path class="path2" d="M28.876 10.213h-14.574l-4.585-5.008c-0.123-0.135-0.298-0.212-0.48-0.212h-6.112c-1.723 0-3.124 1.401-3.124 3.124v12.875c0 0.36 0.292 0.651 0.651 0.651s0.651-0.292 0.651-0.651v-12.875c0-1.005 0.817-1.822 1.822-1.822h5.825l4.585 5.008c0.123 0.135 0.298 0.212 0.48 0.212h14.861c1.005 0 1.822 0.817 1.822 1.822v14.889c0 1.004-0.817 1.822-1.822 1.822h-25.752c-1.005 0-1.822-0.817-1.822-1.822 0-0.36-0.292-0.651-0.651-0.651s-0.651 0.292-0.651 0.651c0 1.723 1.401 3.124 3.124 3.124h25.752c1.723 0 3.124-1.401 3.124-3.124v-14.889c0-1.723-1.401-3.124-3.124-3.124z"></path>
</symbol>
<symbol id="icon-local-folder" viewBox="0 0 32 32">
<title>local-folder</title>
<path class="path1" d="M29.823 5.529h-8.067l-2.087-2.261c-0.62-0.671-1.499-1.056-2.412-1.056h-15.079c-1.2 0-2.177 0.977-2.177 2.177v23.222c0 1.2 0.977 2.177 2.177 2.177h27.646c1.2 0 2.177-0.977 2.177-2.177v-19.905c0-1.2-0.977-2.177-2.177-2.177zM18.907 3.971l1.438 1.558h-1.907l-2.087-2.261c-0.006-0.007-0.013-0.013-0.019-0.019h0.924c0.625 0 1.227 0.263 1.651 0.723zM13.939 3.248c0.625 0 1.227 0.263 1.651 0.723l1.438 1.558h-2.162l-2.087-2.261c-0.006-0.007-0.013-0.013-0.019-0.019h1.179zM2.177 3.248h8.189c0.625 0 1.227 0.263 1.651 0.723l1.438 1.558h-11.278c-0.418 0-0.808 0.119-1.14 0.324v-1.464c0-0.629 0.512-1.14 1.14-1.14zM30.963 27.611c0 0.629-0.512 1.14-1.14 1.14h-27.646c-0.629 0-1.14-0.512-1.14-1.14v-19.905c0-0.629 0.512-1.14 1.14-1.14h27.646c0.629 0 1.14 0.512 1.14 1.14v19.905z"></path>
<path class="path2" d="M27.611 8.847h-7.741c-0.591 0-1.071 0.481-1.071 1.071v5.529c0 0.591 0.481 1.071 1.071 1.071h7.741c0.591 0 1.071-0.481 1.071-1.071v-5.529c0-0.591-0.481-1.071-1.071-1.071zM27.646 15.447c0 0.019-0.015 0.035-0.035 0.035h-7.741c-0.019 0-0.035-0.015-0.035-0.035v-5.529c0-0.019 0.015-0.035 0.035-0.035h7.741c0.019 0 0.035 0.015 0.035 0.035v5.529z"></path>
<path class="path3" d="M25.952 11.058h-4.423c-0.286 0-0.518 0.232-0.518 0.518s0.232 0.518 0.518 0.518h4.423c0.286 0 0.518-0.232 0.518-0.518s-0.232-0.518-0.518-0.518z"></path>
<path class="path4" d="M25.952 13.27h-4.423c-0.286 0-0.518 0.232-0.518 0.518s0.232 0.518 0.518 0.518h4.423c0.286 0 0.518-0.232 0.518-0.518s-0.232-0.518-0.518-0.518z"></path>
</symbol>
</defs>
</svg>
