<svg style="position: absolute; width: 0; height: 0; overflow: hidden;" version="1.1" xmlns="http://www.w3.org/2000/svg" xmlns:xlink="http://www.w3.org/1999/xlink">
<defs>
<symbol id="Freepik-car-radio" viewBox="0 0 32 32">
<title>Freepik-car-radio</title>
<path class="path1" style="fill: var(--color)" d="M30.352 22.325h-28.703c-0.909 0-1.648-0.739-1.648-1.648v-9.354c0-0.909 0.739-1.648 1.648-1.648h28.703c0.909 0 1.648 0.739 1.648 1.648v9.354c0 0.909-0.739 1.648-1.648 1.648zM1.648 10.288c-0.571 0-1.035 0.464-1.035 1.035v9.354c0 0.571 0.464 1.035 1.035 1.035h28.703c0.571 0 1.035-0.464 1.035-1.035v-9.354c0-0.571-0.464-1.035-1.035-1.035h-28.703zM28.763 20.153h-3.294c-0.628 0-1.139-0.511-1.139-1.138v-0.017c0-0.628 0.511-1.139 1.139-1.139h3.294c0.628 0 1.139 0.511 1.139 1.139v0.017c0 0.628-0.511 1.138-1.139 1.138zM27.423 19.54h1.34c0.29 0 0.525-0.236 0.525-0.525v-0.017c0-0.29-0.236-0.525-0.525-0.525h-1.34v1.067zM25.469 18.473c-0.29 0-0.525 0.236-0.525 0.525v0.017c0 0.29 0.236 0.525 0.525 0.525h1.34v-1.067h-1.34zM22.311 20.153h-19.704c-0.169 0-0.307-0.137-0.307-0.307v-4.038c0-0.169 0.137-0.307 0.307-0.307h19.704c0.169 0 0.307 0.137 0.307 0.307v4.038c0 0.169-0.137 0.307-0.307 0.307zM2.913 19.54h19.091v-3.425h-19.091v3.425zM19.114 19.124h-1.035c-0.169 0-0.307-0.137-0.307-0.307s0.137-0.307 0.307-0.307h1.035c0.169 0 0.307 0.137 0.307 0.307s-0.137 0.307-0.307 0.307zM16.576 19.124h-1.035c-0.169 0-0.307-0.137-0.307-0.307s0.137-0.307 0.307-0.307h1.035c0.169 0 0.307 0.137 0.307 0.307s-0.137 0.307-0.307 0.307zM14.037 19.124h-1.035c-0.169 0-0.307-0.137-0.307-0.307s0.137-0.307 0.307-0.307h1.035c0.169 0 0.307 0.137 0.307 0.307s-0.137 0.307-0.307 0.307zM11.498 19.124h-1.035c-0.169 0-0.307-0.137-0.307-0.307s0.137-0.307 0.307-0.307h1.035c0.169 0 0.307 0.137 0.307 0.307s-0.137 0.307-0.307 0.307zM8.96 19.124h-1.035c-0.169 0-0.307-0.137-0.307-0.307s0.137-0.307 0.307-0.307h1.035c0.169 0 0.307 0.137 0.307 0.307s-0.137 0.307-0.307 0.307zM6.421 19.124h-1.035c-0.169 0-0.307-0.137-0.307-0.307s0.137-0.307 0.307-0.307h1.035c0.169 0 0.307 0.137 0.307 0.307s-0.137 0.307-0.307 0.307zM16.576 18.287h-1.035c-0.169 0-0.307-0.137-0.307-0.307s0.137-0.307 0.307-0.307h1.035c0.169 0 0.307 0.137 0.307 0.307s-0.137 0.307-0.307 0.307zM14.037 18.287h-1.035c-0.169 0-0.307-0.137-0.307-0.307s0.137-0.307 0.307-0.307h1.035c0.169 0 0.307 0.137 0.307 0.307s-0.137 0.307-0.307 0.307zM11.498 18.287h-1.035c-0.169 0-0.307-0.137-0.307-0.307s0.137-0.307 0.307-0.307h1.035c0.169 0 0.307 0.137 0.307 0.307s-0.137 0.307-0.307 0.307zM8.96 18.287h-1.035c-0.169 0-0.307-0.137-0.307-0.307s0.137-0.307 0.307-0.307h1.035c0.169 0 0.307 0.137 0.307 0.307s-0.137 0.307-0.307 0.307zM16.576 17.45h-1.035c-0.169 0-0.307-0.137-0.307-0.307s0.137-0.307 0.307-0.307h1.035c0.169 0 0.307 0.137 0.307 0.307s-0.137 0.307-0.307 0.307zM11.498 17.45h-1.035c-0.169 0-0.307-0.137-0.307-0.307s0.137-0.307 0.307-0.307h1.035c0.169 0 0.307 0.137 0.307 0.307s-0.137 0.307-0.307 0.307zM27.116 17.342c-1.536 0-2.786-1.25-2.786-2.786s1.25-2.786 2.786-2.786 2.786 1.25 2.786 2.786c0 1.536-1.25 2.786-2.786 2.786zM27.116 12.384c-1.198 0-2.172 0.974-2.172 2.172s0.974 2.172 2.172 2.172 2.172-0.974 2.172-2.172-0.975-2.172-2.172-2.172zM27.116 16.027c-0.811 0-1.471-0.66-1.471-1.471s0.66-1.471 1.471-1.471 1.471 0.66 1.471 1.471-0.66 1.471-1.471 1.471zM27.116 13.699c-0.473 0-0.858 0.385-0.858 0.857s0.385 0.858 0.858 0.858 0.858-0.385 0.858-0.858c0-0.473-0.385-0.857-0.858-0.857zM22.311 14.735h-3.118c-0.169 0-0.307-0.137-0.307-0.307v-0.971c0-0.169 0.137-0.307 0.307-0.307h3.118c0.169 0 0.307 0.137 0.307 0.307v0.971c0 0.169-0.137 0.307-0.307 0.307zM19.5 14.122h2.505v-0.358h-2.505v0.358zM16.782 14.735h-3.118c-0.169 0-0.307-0.137-0.307-0.307v-0.971c0-0.169 0.137-0.307 0.307-0.307h3.118c0.169 0 0.307 0.137 0.307 0.307v0.971c0 0.169-0.137 0.307-0.307 0.307zM13.971 14.122h2.505v-0.358h-2.505v0.358zM11.254 14.735h-3.118c-0.169 0-0.307-0.137-0.307-0.307v-0.971c0-0.169 0.137-0.307 0.307-0.307h3.118c0.169 0 0.307 0.137 0.307 0.307v0.971c0 0.169-0.137 0.307-0.307 0.307zM8.442 14.122h2.505v-0.358h-2.505v0.358zM5.725 14.735h-3.118c-0.169 0-0.307-0.137-0.307-0.307v-0.971c0-0.169 0.137-0.307 0.307-0.307h3.118c0.169 0 0.307 0.137 0.307 0.307v0.971c0 0.169-0.137 0.307-0.307 0.307zM2.913 14.122h2.505v-0.358h-2.505v0.358zM22.311 12.384h-19.704c-0.169 0-0.307-0.137-0.307-0.307s0.137-0.307 0.307-0.307h19.704c0.169 0 0.307 0.137 0.307 0.307s-0.137 0.307-0.307 0.307z"></path>
</symbol>
<symbol id="Freepik-music-recorder" viewBox="0 0 32 32">
<title>Freepik-music-recorder</title>
<path class="path1" d="M29.747 25.163h-2.649c-0.163 0-0.294-0.132-0.294-0.294v-1.026h-21.446v1.026c0 0.163-0.132 0.294-0.294 0.294h-2.649c-0.163 0-0.294-0.132-0.294-0.294v-1.026h-0.664c-0.803 0-1.456-0.653-1.456-1.456v-5.226c0-0.803 0.653-1.456 1.456-1.456h0.664v-0.732h-0.664c-0.803 0-1.456-0.653-1.456-1.456v-5.226c0-0.803 0.653-1.456 1.456-1.456h29.089c0.803 0 1.456 0.653 1.456 1.456v5.226c0 0.803-0.653 1.456-1.456 1.456h-0.503v0.732h0.503c0.803 0 1.456 0.653 1.456 1.456v5.226c0 0.803-0.653 1.456-1.456 1.456h-0.503v1.026c0 0.162-0.132 0.294-0.294 0.294zM27.392 24.574h2.060v-0.732h-2.060v0.732zM2.708 24.574h2.060v-0.732h-2.060v0.732zM29.747 23.254h0.798c0.478 0 0.867-0.389 0.867-0.867v-5.226c0-0.478-0.389-0.867-0.867-0.867h-29.089c-0.478 0-0.867 0.389-0.867 0.867v5.226c0 0.478 0.389 0.867 0.867 0.867h28.291zM27.392 15.705h2.060v-0.732h-2.060v0.732zM5.357 15.705h21.445v-0.732h-21.445v0.732zM2.708 15.705h2.060v-0.732h-2.060v0.732zM29.747 14.385h0.798c0.478 0 0.867-0.389 0.867-0.867v-5.226c0-0.478-0.389-0.867-0.867-0.867h-29.089c-0.478 0-0.867 0.389-0.867 0.867v5.226c0 0.478 0.389 0.867 0.867 0.867h28.291zM19.368 22.275h-16.954c-0.163 0-0.294-0.132-0.294-0.294v-0.806c0-0.004 0-0.009 0-0.013v-3.651c0-0.163 0.132-0.294 0.294-0.294h16.954c0.163 0 0.294 0.132 0.294 0.294v3.654c0 0.002 0 0.005 0 0.007v0.809c0 0.163-0.132 0.295-0.294 0.295zM2.708 21.686h16.365v-0.317c-0.758-0.283-3.853-1.329-8.182-1.329-4.337 0-7.425 1.046-8.182 1.329v0.317zM2.708 17.804v2.936c0.774-0.277 2.598-0.846 5.166-1.126l-0.135-1.11c-0.020-0.161 0.095-0.308 0.257-0.328 0.162-0.019 0.308 0.095 0.328 0.257l0.137 1.124c0.755-0.066 1.567-0.106 2.43-0.106 4.149 0 7.132 0.914 8.182 1.29v-2.936h-16.365zM28.078 21.738c-1.083 0-1.964-0.881-1.964-1.964s0.881-1.964 1.964-1.964 1.964 0.881 1.964 1.964-0.881 1.964-1.964 1.964zM27.783 18.431c-0.617 0.135-1.080 0.686-1.080 1.343 0 0.758 0.617 1.375 1.375 1.375s1.375-0.617 1.375-1.375c0-0.657-0.463-1.208-1.080-1.343v0.378c0 0.163-0.132 0.294-0.294 0.294s-0.294-0.132-0.294-0.294v-0.378zM23.031 21.738c-1.083 0-1.964-0.881-1.964-1.964s0.881-1.964 1.964-1.964c1.083 0 1.964 0.881 1.964 1.964s-0.881 1.964-1.964 1.964zM23.031 18.399c-0.758 0-1.375 0.617-1.375 1.375s0.617 1.375 1.375 1.375 1.375-0.617 1.375-1.375c0-0.151-0.024-0.296-0.070-0.432l-0.345 0.239c-0.134 0.092-0.317 0.059-0.41-0.075s-0.059-0.317 0.075-0.41l0.378-0.261c-0.251-0.268-0.608-0.436-1.003-0.436zM29.747 13.29c-0.163 0-0.294-0.132-0.294-0.294v-1.614h-0.259c-0.163 0-0.294-0.132-0.294-0.294s0.132-0.294 0.294-0.294h0.259v-1.89c0-0.163 0.132-0.294 0.294-0.294s0.294 0.132 0.294 0.294v1.89h0.259c0.163 0 0.294 0.132 0.294 0.294s-0.132 0.294-0.294 0.294h-0.259v1.614c0 0.163-0.132 0.294-0.294 0.294zM27.65 13.29c-0.163 0-0.294-0.132-0.294-0.294v-0.896h-0.259c-0.163 0-0.294-0.132-0.294-0.294s0.132-0.294 0.294-0.294h0.259v-2.609c0-0.163 0.132-0.294 0.294-0.294s0.294 0.132 0.294 0.294v2.609h0.259c0.163 0 0.294 0.132 0.294 0.294s-0.132 0.294-0.294 0.294h-0.259v0.896c0 0.163-0.132 0.294-0.294 0.294zM25.554 13.29c-0.163 0-0.294-0.132-0.294-0.294v-2.732h-0.259c-0.163 0-0.294-0.132-0.294-0.294s0.132-0.294 0.294-0.294h0.259v-0.772c0-0.163 0.132-0.294 0.294-0.294s0.294 0.132 0.294 0.294v0.772h0.259c0.163 0 0.294 0.132 0.294 0.294s-0.132 0.294-0.294 0.294h-0.259v2.732c0 0.163-0.132 0.294-0.294 0.294zM23.458 13.29c-0.163 0-0.294-0.132-0.294-0.294v-1.723h-0.259c-0.163 0-0.294-0.132-0.294-0.294s0.132-0.294 0.294-0.294h0.259v-1.781c0-0.163 0.132-0.294 0.294-0.294s0.294 0.132 0.294 0.294v1.781h0.259c0.163 0 0.294 0.132 0.294 0.294s-0.132 0.294-0.294 0.294h-0.259v1.723c0 0.163-0.132 0.294-0.294 0.294zM21.362 13.29c-0.163 0-0.294-0.132-0.294-0.294v-3.327h-0.259c-0.163 0-0.294-0.132-0.294-0.294s0.132-0.294 0.294-0.294h0.259v-0.177c0-0.163 0.132-0.294 0.294-0.294s0.294 0.132 0.294 0.294v0.177h0.259c0.163 0 0.294 0.132 0.294 0.294s-0.132 0.294-0.294 0.294h-0.259v3.327c0 0.163-0.132 0.294-0.294 0.294zM19.368 13.29h-16.954c-0.163 0-0.294-0.132-0.294-0.294v-2.424c0-0.163 0.132-0.294 0.294-0.294h16.954c0.163 0 0.294 0.132 0.294 0.294v2.424c0 0.163-0.132 0.294-0.294 0.294zM2.708 12.701h16.365v-1.835h-16.365v1.835zM19.368 9.196h-16.954c-0.163 0-0.294-0.132-0.294-0.294s0.132-0.294 0.294-0.294h16.954c0.163 0 0.294 0.132 0.294 0.294s-0.132 0.294-0.294 0.294z"></path>
</symbol>
<symbol id="Freepik-pedal" viewBox="0 0 32 32">
<title>Freepik-pedal</title>
<path class="path1" d="M22.854 17.548h-13.709c-0.326 0-0.591 0.265-0.591 0.591v10.906c0 0.326 0.265 0.591 0.591 0.591h13.709c0.326 0 0.591-0.265 0.591-0.591v-10.906c0-0.326-0.265-0.591-0.591-0.591zM22.264 28.455h-12.527v-9.724h12.527v9.724z"></path>
<path class="path2" d="M20.432 20.697h-8.863c-0.326 0-0.591 0.265-0.591 0.591s0.265 0.591 0.591 0.591h8.863c0.326 0 0.591-0.265 0.591-0.591s-0.265-0.591-0.591-0.591z"></path>
<path class="path3" d="M20.432 23.001h-8.863c-0.326 0-0.591 0.265-0.591 0.591s0.265 0.591 0.591 0.591h8.863c0.326 0 0.591-0.265 0.591-0.591s-0.265-0.591-0.591-0.591z"></path>
<path class="path4" d="M20.432 25.306h-8.863c-0.326 0-0.591 0.265-0.591 0.591s0.265 0.591 0.591 0.591h8.863c0.326 0 0.591-0.265 0.591-0.591s-0.265-0.591-0.591-0.591z"></path>
<path class="path5" style="fill: var(--pedal-border)" d="M27.712 12.014v-3.782c0-0.326-0.265-0.591-0.591-0.591h-1.321c-0.074-0.853-0.672-1.559-1.469-1.793v-5.257c0-0.326-0.265-0.591-0.591-0.591h-15.481c-0.326 0-0.591 0.265-0.591 0.591v5.257c-0.797 0.235-1.395 0.94-1.469 1.793h-1.321c-0.326 0-0.591 0.265-0.591 0.591v3.782c0 0.326 0.265 0.591 0.591 0.591h1.312v0.499h-1.312c-0.326 0-0.591 0.265-0.591 0.591v3.782c0 0.326 0.265 0.591 0.591 0.591h1.312v11.876c0 1.134 0.923 2.057 2.057 2.057h15.503c1.134 0 2.057-0.923 2.057-2.057v-11.876h1.312c0.326 0 0.591-0.265 0.591-0.591v-3.782c0-0.326-0.265-0.591-0.591-0.591h-1.312v-0.499l1.312 0c0.326 0 0.591-0.265 0.591-0.591zM6.191 16.885h-0.721v-2.6h0.721v2.6zM6.191 11.423h-0.721v-2.6h0.721v2.6zM8.851 1.182h14.299v4.583h-14.299v-4.583zM24.627 29.943c0 0.483-0.393 0.875-0.875 0.875h-15.504c-0.483 0-0.875-0.393-0.875-0.875v-22.122c0-0.483 0.393-0.875 0.875-0.875h15.504c0.483 0 0.875 0.393 0.875 0.875v22.122zM25.809 14.285h0.721v2.6h-0.721v-2.6zM26.53 11.423h-0.721v-2.6h0.721v2.6z"></path>
<path class="path6" d="M10.327 8.561c-1.224 0-2.219 0.995-2.219 2.219s0.995 2.219 2.219 2.219c1.224 0 2.219-0.995 2.219-2.219s-0.995-2.219-2.219-2.219zM10.327 11.818c-0.572 0-1.037-0.465-1.037-1.037s0.465-1.037 1.037-1.037c0.572 0 1.037 0.465 1.037 1.037s-0.465 1.037-1.037 1.037z"></path>
<path class="path7" d="M16 8.561c-1.224 0-2.219 0.995-2.219 2.219s0.995 2.219 2.219 2.219c1.224 0 2.219-0.995 2.219-2.219s-0.996-2.219-2.219-2.219zM16 11.818c-0.572 0-1.037-0.465-1.037-1.037s0.465-1.037 1.037-1.037c0.572 0 1.037 0.465 1.037 1.037s-0.465 1.037-1.037 1.037z"></path>
<path class="path8" d="M21.673 8.561c-1.224 0-2.219 0.995-2.219 2.219s0.996 2.219 2.219 2.219 2.219-0.995 2.219-2.219c0-1.224-0.996-2.219-2.219-2.219zM21.673 11.818c-0.572 0-1.037-0.465-1.037-1.037s0.465-1.037 1.037-1.037 1.037 0.465 1.037 1.037c0 0.572-0.465 1.037-1.037 1.037z"></path>
<path class="path9" d="M13.137 2.016h-2.626c-0.326 0-0.591 0.265-0.591 0.591s0.265 0.591 0.591 0.591h2.626c0.326 0 0.591-0.265 0.591-0.591s-0.265-0.591-0.591-0.591z"></path>
<path class="path10" d="M13.137 3.749h-2.626c-0.326 0-0.591 0.265-0.591 0.591s0.265 0.591 0.591 0.591h2.626c0.326 0 0.591-0.265 0.591-0.591s-0.265-0.591-0.591-0.591z"></path>
<path class="path11" d="M21.489 2.016h-2.626c-0.326 0-0.591 0.265-0.591 0.591s0.265 0.591 0.591 0.591h2.626c0.326 0 0.591-0.265 0.591-0.591s-0.265-0.591-0.591-0.591z"></path>
<path class="path12" d="M21.489 3.749h-2.626c-0.326 0-0.591 0.265-0.591 0.591s0.265 0.591 0.591 0.591h2.626c0.326 0 0.591-0.265 0.591-0.591s-0.265-0.591-0.591-0.591z"></path>
</symbol>
<symbol id="Humphries-guitar-pedal" viewBox="0 0 32 32">
<title>Humphries-guitar-pedal</title>
<path class="path1"  d="M4 12.5c-0.275 0-0.5 0.225-0.5 0.5v2c0 0.275 0.225 0.5 0.5 0.5s0.5-0.225 0.5-0.5v-2c0-0.275-0.225-0.5-0.5-0.5v0zM28 12.5c-0.275 0-0.5 0.225-0.5 0.5v2c0 0.275 0.225 0.5 0.5 0.5s0.5-0.225 0.5-0.5v-2c0-0.275-0.225-0.5-0.5-0.5v0zM22 5.5c-0.828 0-1.5 0.672-1.5 1.5s0.672 1.5 1.5 1.5 1.5-0.672 1.5-1.5-0.672-1.5-1.5-1.5v0zM18 5.5c-0.828 0-1.5 0.672-1.5 1.5s0.672 1.5 1.5 1.5 1.5-0.672 1.5-1.5-0.671-1.5-1.5-1.5v0zM14 5.5c-0.829 0-1.5 0.672-1.5 1.5s0.672 1.5 1.5 1.5 1.5-0.672 1.5-1.5-0.672-1.5-1.5-1.5v0zM10 5.5c-0.829 0-1.5 0.672-1.5 1.5s0.672 1.5 1.5 1.5 1.5-0.672 1.5-1.5-0.672-1.5-1.5-1.5v0zM24.5 11c0 0.276-0.224 0.5-0.5 0.5h-16c-0.276 0-0.5-0.224-0.5-0.5v-8c0-0.276 0.224-0.5 0.5-0.5h16c0.276 0 0.5 0.224 0.5 0.5v8zM24 2h-16c-0.55 0-1 0.45-1 1v8c0 0.55 0.45 1 1 1h16c0.55 0 1-0.45 1-1v-8c0-0.55-0.45-1-1-1v0zM7.5 30h17c0.275 0 0.5-0.225 0.5-0.5v-11c0-0.275-0.225-0.5-0.5-0.5h-17c-0.275 0-0.5 0.225-0.5 0.5v11c0 0.275 0.225 0.5 0.5 0.5v0zM26 16.5h-20v-14c0-0.827 0.673-1.5 1.5-1.5h17c0.827 0 1.5 0.673 1.5 1.5v14h-0zM26 29.5c0 0.827-0.673 1.5-1.5 1.5h-17c-0.827 0-1.5-0.673-1.5-1.5v-12.5h20v12.5h0zM24.5 0h-17c-1.375 0-2.5 1.125-2.5 2.5v27c0 1.375 1.125 2.5 2.5 2.5h17c1.375 0 2.5-1.125 2.5-2.5v-27c0-1.375-1.125-2.5-2.5-2.5v0z"></path>
</symbol>
<symbol id="Humphries-guitar-pedal-2" viewBox="0 0 32 32">
<title>Humphries-guitar-pedal-2</title>
<path class="path1" d="M23.25 8.5c1.435 0 2.611-1.098 2.738-2.5h-2.738c-0.138 0-0.25-0.112-0.25-0.25s0.112-0.25 0.25-0.25h2.738c-0.127-1.402-1.303-2.5-2.738-2.5-1.519 0-2.75 1.231-2.75 2.75s1.231 2.75 2.75 2.75v0zM8.75 8.5c1.519 0 2.75-1.231 2.75-2.75 0-1.435-1.098-2.611-2.5-2.738v2.738c0 0.138-0.112 0.25-0.25 0.25s-0.25-0.112-0.25-0.25v-2.738c-1.402 0.127-2.5 1.303-2.5 2.738 0 1.519 1.231 2.75 2.75 2.75v0zM26.5 21h-21c-0.276 0-0.5 0.224-0.5 0.5s0.224 0.5 0.5 0.5h21c0.276 0 0.5-0.224 0.5-0.5s-0.224-0.5-0.5-0.5v0zM15.75 6.5c0.414 0 0.75-0.336 0.75-0.75s-0.336-0.75-0.75-0.75-0.75 0.336-0.75 0.75c0 0.414 0.336 0.75 0.75 0.75v0zM15.75 15.5c1.519 0 2.75-1.231 2.75-2.75 0-1.435-1.098-2.611-2.5-2.738v2.738c0 0.138-0.112 0.25-0.25 0.25s-0.25-0.112-0.25-0.25v-2.738c-1.402 0.127-2.5 1.303-2.5 2.738 0 1.519 1.231 2.75 2.75 2.75v0zM16 28.5c-1.103 0-2-0.897-2-2s0.897-2 2-2c1.103 0 2 0.897 2 2s-0.897 2-2 2v0zM16 24c-1.381 0-2.5 1.119-2.5 2.5s1.119 2.5 2.5 2.5 2.5-1.119 2.5-2.5c0-1.38-1.12-2.5-2.5-2.5v0zM16 25c-0.829 0-1.5 0.672-1.5 1.5s0.672 1.5 1.5 1.5 1.5-0.672 1.5-1.5c-0-0.829-0.672-1.5-1.5-1.5v0zM28 29.5c0 0.827-0.673 1.5-1.5 1.5h-21c-0.827 0-1.5-0.673-1.5-1.5v-27c0-0.827 0.673-1.5 1.5-1.5h21c0.827 0 1.5 0.673 1.5 1.5v27zM26.5 0h-21c-1.375 0-2.5 1.125-2.5 2.5v27c0 1.375 1.125 2.5 2.5 2.5h21c1.375 0 2.5-1.125 2.5-2.5v-27c0-1.375-1.125-2.5-2.5-2.5v0z"></path>
</symbol>
<symbol id="Freepik-equalizer-bars" viewBox="0 0 32 32">
<title>Freepik-equalizer-bars</title>
<path class="path1" d="M15.495 27.077h-2.422c-0.161 0-0.292-0.131-0.292-0.292v-10.493h-0.692v6.019c0 0.161-0.131 0.292-0.292 0.292h-2.422c-0.161 0-0.292-0.131-0.292-0.292v-6.019h-0.692v4.422c0 0.161-0.131 0.292-0.292 0.292h-2.422c-0.161 0-0.292-0.131-0.292-0.292v-4.422h-0.692v1.687c0 0.161-0.131 0.292-0.292 0.292h-2.422c-0.161 0-0.292-0.131-0.292-0.292v-1.687h-1.396c-0.161 0-0.292-0.131-0.292-0.292s0.131-0.292 0.292-0.292h1.396v-1.687c0-0.161 0.131-0.292 0.292-0.292h2.422c0.161 0 0.292 0.131 0.292 0.292v1.687h0.692v-4.422c0-0.161 0.131-0.292 0.292-0.292h2.422c0.161 0 0.292 0.131 0.292 0.292v4.422h0.692v-6.019c0-0.161 0.131-0.292 0.292-0.292h2.422c0.161 0 0.292 0.131 0.292 0.292v6.019h0.692v-10.493c0-0.161 0.131-0.292 0.292-0.292h2.422c0.161 0 0.292 0.131 0.292 0.292v10.493h0.692v-3.543c0-0.161 0.131-0.292 0.292-0.292h2.422c0.161 0 0.292 0.131 0.292 0.292v3.543h0.692v-7.617c0-0.161 0.131-0.292 0.292-0.292h2.422c0.161 0 0.292 0.131 0.292 0.292v7.617h0.692v-4.422c0-0.161 0.131-0.292 0.292-0.292h2.422c0.161 0 0.292 0.131 0.292 0.292v4.422h0.692v-0.667c0-0.161 0.131-0.292 0.292-0.292h2.422c0.161 0 0.292 0.131 0.292 0.292v0.667h1.131c0.161 0 0.292 0.131 0.292 0.292s-0.131 0.292-0.292 0.292h-1.131v0.667c0 0.161-0.131 0.292-0.292 0.292h-2.422c-0.161 0-0.292-0.131-0.292-0.292v-0.667h-0.692v4.422c0 0.161-0.131 0.292-0.292 0.292h-2.422c-0.161 0-0.292-0.131-0.292-0.292v-4.422h-0.692v7.617c0 0.161-0.131 0.292-0.292 0.292h-2.422c-0.161 0-0.292-0.131-0.292-0.292v-7.617h-0.692v3.543c0 0.161-0.131 0.292-0.292 0.292h-2.422c-0.161 0-0.292-0.131-0.292-0.292v-3.543h-0.692v10.493c-0 0.161-0.131 0.292-0.292 0.292zM13.365 26.493h1.838v-0.798h-1.838v0.798zM13.365 25.112h1.838v-8.82h-1.838v8.82zM20.76 23.617h1.838v-7.325h-1.838v7.325zM9.667 22.019h1.838v-5.727h-1.838v5.727zM24.457 20.422h1.838v-4.13h-1.838v4.13zM5.969 20.422h1.838v-4.13h-1.838v4.13zM17.062 19.543h1.838v-3.251h-1.838v3.251zM2.272 17.687h1.838v-1.395h-1.838v1.395zM28.155 16.667h1.838v-0.375h-1.838v0.375zM28.155 15.708h1.838v-0.375h-1.838v0.375zM24.457 15.708h1.838v-4.13h-1.838v4.13zM20.76 15.708h1.838v-7.325h-1.838v7.325zM17.062 15.708h1.838v-3.251h-1.838v3.251zM13.365 15.708h1.838v-8.943h-1.838v8.943zM9.667 15.708h1.838v-5.727h-1.838v5.727zM5.969 15.708h1.838v-4.13h-1.838v4.13zM2.272 15.708h1.838v-1.395h-1.838v1.395zM13.365 6.182h1.838v-0.675h-1.838v0.675z"></path>
</symbol>
</defs>
</svg>
