<svg style="position: absolute; width: 0; height: 0; overflow: hidden;" version="1.1" xmlns="http://www.w3.org/2000/svg" xmlns:xlink="http://www.w3.org/1999/xlink">

<defs>
<symbol id="Iconic-Amplifier" viewBox="0 0 95 32">
  <title>Iconic-Amplifier</title>
  <path class="path1" d="M70.4 21.845c0.277 0 0.533 0.107 0.704 0.299 0.171 0.171 0.299 0.427 0.299 0.704s-0.107 0.533-0.299 0.704c-0.171 0.171-0.427 0.299-0.704 0.299s-0.533-0.107-0.704-0.299c-0.171-0.171-0.299-0.427-0.299-0.704s0.107-0.533 0.299-0.704c0.171-0.171 0.427-0.299 0.704-0.299zM0.277 0h94.955v29.845h-4.267v1.259c0 0.192-0.085 0.363-0.213 0.491s-0.299 0.213-0.491 0.213h-9.28c-0.192 0-0.363-0.085-0.491-0.213s-0.213-0.299-0.213-0.491v-1.259h-65.301v1.259c0 0.192-0.085 0.363-0.213 0.491s-0.299 0.213-0.491 0.213h-9.28c-0.192 0-0.363-0.085-0.491-0.213s-0.213-0.299-0.213-0.491v-1.259h-4.267v-29.845h0.277zM90.389 29.867h-9.536v1.259c0 0.043 0.021 0.064 0.043 0.085s0.064 0.043 0.085 0.043h9.28c0.043 0 0.064-0.021 0.085-0.043s0.043-0.064 0.043-0.085v-1.259zM14.4 29.867h-9.536v1.259c0 0.043 0.021 0.064 0.043 0.085s0.064 0.043 0.085 0.043h9.28c0.043 0 0.064-0.021 0.085-0.043s0.043-0.064 0.043-0.085v-1.259zM6.528 8.256c0.661 0 1.28 0.277 1.707 0.704 0.448 0.448 0.704 1.045 0.704 1.707s-0.277 1.28-0.704 1.707c-0.448 0.448-1.045 0.704-1.707 0.704s-1.28-0.277-1.707-0.704c-0.448-0.448-0.704-1.045-0.704-1.707s0.277-1.28 0.704-1.707c0.448-0.448 1.045-0.704 1.707-0.704zM7.829 9.365c-0.341-0.341-0.789-0.533-1.301-0.533s-0.981 0.213-1.301 0.533c-0.341 0.341-0.533 0.789-0.533 1.301s0.213 0.981 0.533 1.301c0.341 0.341 0.789 0.533 1.301 0.533s0.981-0.213 1.301-0.533c0.341-0.341 0.533-0.789 0.533-1.301s-0.213-0.981-0.533-1.301zM82.261 4.096c1.664 0 3.157 0.661 4.245 1.749s1.749 2.581 1.749 4.245-0.661 3.157-1.749 4.245-2.581 1.749-4.245 1.749c-1.344 0-2.56-0.448-3.563-1.173h-63.915v-9.621h63.915c1.003-0.747 2.24-1.173 3.563-1.173zM78.037 14.336c-1.088-1.088-1.749-2.581-1.749-4.245s0.661-3.157 1.749-4.245h-62.677v8.491h62.677zM86.101 6.251c-0.981-0.981-2.347-1.579-3.84-1.579s-2.859 0.597-3.84 1.579-1.579 2.347-1.579 3.84 0.597 2.859 1.579 3.84 2.347 1.579 3.84 1.579 2.859-0.597 3.84-1.579 1.579-2.347 1.579-3.84-0.597-2.859-1.579-3.84zM6.443 21.675c0.32 0 0.597 0.128 0.811 0.341s0.341 0.491 0.341 0.811-0.128 0.597-0.341 0.811-0.491 0.341-0.811 0.341-0.597-0.128-0.811-0.341-0.341-0.491-0.341-0.811 0.128-0.597 0.341-0.811 0.491-0.341 0.811-0.341zM7.040 22.208c-0.149-0.149-0.363-0.256-0.597-0.256s-0.448 0.085-0.597 0.256c-0.149 0.149-0.256 0.363-0.256 0.597s0.085 0.448 0.256 0.597c0.149 0.149 0.363 0.256 0.597 0.256s0.448-0.085 0.597-0.256c0.149-0.149 0.256-0.363 0.256-0.597s-0.085-0.448-0.256-0.597zM6.443 22.080c0.213 0 0.384 0.085 0.512 0.213s0.213 0.32 0.213 0.512c0 0.213-0.085 0.384-0.213 0.512s-0.32 0.213-0.512 0.213c-0.213 0-0.384-0.085-0.512-0.213s-0.213-0.32-0.213-0.512c0-0.213 0.085-0.384 0.213-0.512s0.32-0.213 0.512-0.213zM13.12 21.824c0.277 0 0.533 0.107 0.704 0.299 0.171 0.171 0.299 0.427 0.299 0.704s-0.107 0.533-0.299 0.704c-0.171 0.171-0.427 0.299-0.704 0.299s-0.533-0.107-0.704-0.299c-0.171-0.171-0.299-0.427-0.299-0.704s0.107-0.533 0.299-0.704c0.171-0.171 0.427-0.299 0.704-0.299zM13.419 22.528c-0.085-0.085-0.192-0.128-0.299-0.128-0.128 0-0.235 0.043-0.299 0.128-0.085 0.085-0.128 0.192-0.128 0.299 0 0.128 0.043 0.235 0.128 0.299 0.085 0.085 0.192 0.128 0.299 0.128 0.128 0 0.235-0.043 0.299-0.128 0.085-0.085 0.128-0.192 0.128-0.299 0-0.128-0.043-0.235-0.128-0.299zM20.864 21.824c0.277 0 0.533 0.107 0.704 0.299 0.171 0.171 0.299 0.427 0.299 0.704s-0.107 0.533-0.299 0.704c-0.171 0.171-0.427 0.299-0.704 0.299s-0.533-0.107-0.704-0.299c-0.171-0.171-0.299-0.427-0.299-0.704s0.107-0.533 0.299-0.704c0.171-0.171 0.427-0.299 0.704-0.299zM21.163 22.528c-0.085-0.085-0.192-0.128-0.299-0.128-0.128 0-0.235 0.043-0.299 0.128-0.085 0.085-0.128 0.192-0.128 0.299 0 0.128 0.043 0.235 0.128 0.299 0.085 0.085 0.192 0.128 0.299 0.128 0.128 0 0.235-0.043 0.299-0.128 0.085-0.085 0.128-0.192 0.128-0.299 0-0.128-0.043-0.235-0.128-0.299zM24.853 21.824c0.277 0 0.533 0.107 0.704 0.299 0.171 0.171 0.299 0.427 0.299 0.704s-0.107 0.533-0.299 0.704c-0.171 0.171-0.427 0.299-0.704 0.299s-0.533-0.107-0.704-0.299c-0.171-0.171-0.299-0.427-0.299-0.704s0.107-0.533 0.299-0.704c0.171-0.171 0.427-0.299 0.704-0.299zM25.152 22.528c-0.085-0.085-0.192-0.128-0.299-0.128-0.128 0-0.235 0.043-0.299 0.128-0.085 0.085-0.128 0.192-0.128 0.299 0 0.128 0.043 0.235 0.128 0.299 0.085 0.085 0.192 0.128 0.299 0.128 0.128 0 0.235-0.043 0.299-0.128 0.085-0.085 0.128-0.192 0.128-0.299 0-0.128-0.043-0.235-0.128-0.299zM62.443 20.629c0.661 0 1.28 0.277 1.707 0.704 0.448 0.448 0.704 1.045 0.704 1.707s-0.277 1.28-0.704 1.707c-0.448 0.448-1.045 0.704-1.707 0.704s-1.28-0.277-1.707-0.704c-0.448-0.448-0.704-1.045-0.704-1.707s0.277-1.28 0.704-1.707c0.448-0.448 1.045-0.704 1.707-0.704zM63.744 21.739c-0.341-0.341-0.789-0.533-1.301-0.533s-0.981 0.213-1.301 0.533c-0.341 0.341-0.533 0.789-0.533 1.301s0.213 0.981 0.533 1.301c0.341 0.341 0.789 0.533 1.301 0.533s0.981-0.213 1.301-0.533c0.341-0.341 0.533-0.789 0.533-1.301s-0.213-0.981-0.533-1.301zM52.544 20.629c0.661 0 1.28 0.277 1.707 0.704 0.448 0.448 0.704 1.045 0.704 1.707s-0.277 1.28-0.704 1.707c-0.448 0.448-1.045 0.704-1.707 0.704s-1.28-0.277-1.707-0.704c-0.448-0.448-0.704-1.045-0.704-1.707s0.277-1.28 0.704-1.707c0.448-0.448 1.045-0.704 1.707-0.704zM53.845 21.739c-0.341-0.341-0.789-0.533-1.301-0.533s-0.981 0.213-1.301 0.533c-0.341 0.341-0.533 0.789-0.533 1.301s0.213 0.981 0.533 1.301c0.341 0.341 0.789 0.533 1.301 0.533s0.981-0.213 1.301-0.533c0.341-0.341 0.533-0.789 0.533-1.301s-0.213-0.981-0.533-1.301zM42.645 20.629c0.661 0 1.28 0.277 1.707 0.704 0.448 0.448 0.704 1.045 0.704 1.707s-0.277 1.28-0.704 1.707c-0.448 0.448-1.045 0.704-1.707 0.704s-1.28-0.277-1.707-0.704c-0.448-0.448-0.704-1.045-0.704-1.707s0.277-1.28 0.704-1.707c0.448-0.448 1.045-0.704 1.707-0.704zM43.947 21.739c-0.341-0.341-0.789-0.533-1.301-0.533s-0.981 0.213-1.301 0.533c-0.341 0.341-0.533 0.789-0.533 1.301s0.213 0.981 0.533 1.301c0.341 0.341 0.789 0.533 1.301 0.533s0.981-0.213 1.301-0.533c0.341-0.341 0.533-0.789 0.533-1.301s-0.213-0.981-0.533-1.301zM32.661 20.629c0.661 0 1.28 0.277 1.707 0.704 0.448 0.448 0.704 1.045 0.704 1.707s-0.277 1.28-0.704 1.707c-0.448 0.448-1.045 0.704-1.707 0.704s-1.28-0.277-1.707-0.704c-0.448-0.448-0.704-1.045-0.704-1.707s0.277-1.28 0.704-1.707c0.448-0.448 1.045-0.704 1.707-0.704zM33.963 21.739c-0.341-0.341-0.789-0.533-1.301-0.533s-0.981 0.213-1.301 0.533c-0.341 0.341-0.533 0.789-0.533 1.301s0.213 0.981 0.533 1.301c0.341 0.341 0.789 0.533 1.301 0.533s0.981-0.213 1.301-0.533c0.341-0.341 0.533-0.789 0.533-1.301s-0.213-0.981-0.533-1.301zM74.283 21.824c0.277 0 0.533 0.107 0.704 0.299 0.171 0.171 0.299 0.427 0.299 0.704s-0.107 0.533-0.299 0.704c-0.171 0.171-0.427 0.299-0.704 0.299s-0.533-0.107-0.704-0.299c-0.171-0.171-0.299-0.427-0.299-0.704s0.107-0.533 0.299-0.704c0.171-0.171 0.427-0.299 0.704-0.299zM78.165 21.824c0.277 0 0.533 0.107 0.704 0.299 0.171 0.171 0.299 0.427 0.299 0.704s-0.107 0.533-0.299 0.704c-0.171 0.171-0.427 0.299-0.704 0.299s-0.533-0.107-0.704-0.299c-0.171-0.171-0.299-0.427-0.299-0.704s0.107-0.533 0.299-0.704c0.171-0.171 0.427-0.299 0.704-0.299zM82.133 21.824c0.277 0 0.533 0.107 0.704 0.299 0.171 0.171 0.299 0.427 0.299 0.704s-0.107 0.533-0.299 0.704c-0.171 0.171-0.427 0.299-0.704 0.299s-0.533-0.107-0.704-0.299c-0.171-0.171-0.299-0.427-0.299-0.704s0.107-0.533 0.299-0.704c0.171-0.171 0.427-0.299 0.704-0.299zM86.869 21.568h3.456v2.069h-3.733v-2.069h0.277zM89.749 22.144h-2.603v0.939h2.603v-0.939zM82.432 22.528c-0.085-0.085-0.192-0.128-0.299-0.128-0.128 0-0.235 0.043-0.299 0.128-0.085 0.085-0.128 0.192-0.128 0.299 0 0.128 0.043 0.235 0.128 0.299 0.085 0.085 0.192 0.128 0.299 0.128 0.128 0 0.235-0.043 0.299-0.128 0.085-0.085 0.128-0.192 0.128-0.299 0-0.128-0.043-0.235-0.128-0.299zM78.464 22.528c-0.085-0.085-0.192-0.128-0.299-0.128-0.128 0-0.235 0.043-0.299 0.128-0.085 0.085-0.128 0.192-0.128 0.299 0 0.128 0.043 0.235 0.128 0.299 0.085 0.085 0.192 0.128 0.299 0.128 0.128 0 0.235-0.043 0.299-0.128 0.085-0.085 0.128-0.192 0.128-0.299 0-0.128-0.043-0.235-0.128-0.299zM74.581 22.528c-0.085-0.085-0.192-0.128-0.299-0.128-0.128 0-0.235 0.043-0.299 0.128-0.085 0.085-0.128 0.192-0.128 0.299 0 0.128 0.043 0.235 0.128 0.299 0.085 0.085 0.192 0.128 0.299 0.128 0.128 0 0.235-0.043 0.299-0.128 0.085-0.085 0.128-0.192 0.128-0.299 0-0.128-0.043-0.235-0.128-0.299zM70.613 22.528c-0.085-0.085-0.192-0.128-0.299-0.128-0.128 0-0.235 0.043-0.299 0.128-0.085 0.085-0.128 0.192-0.128 0.299 0 0.128 0.043 0.235 0.128 0.299 0.085 0.085 0.192 0.128 0.299 0.128 0.128 0 0.235-0.043 0.299-0.128 0.085-0.085 0.128-0.192 0.128-0.299 0-0.128-0.043-0.235-0.128-0.299zM94.592 0.555h-94.101v28.715h94.101v-28.715z"></path>
</symbol>
<symbol id="Artem-Kovyazin-Guitar-Pedal-2" viewBox="0 0 32 32">
  <title>Artem-Kovyazin-Guitar-Pedal-2</title>
  <path class="path1" d="M16 5.6c0.512 0 0.96-0.416 0.96-0.96 0-0.48-0.448-0.896-0.96-0.896s-0.96 0.416-0.96 0.96c0 0.48 0.448 0.896 0.96 0.896zM16 4.384c0.16 0 0.32 0.128 0.32 0.32 0 0.128-0.16 0.256-0.32 0.256s-0.32-0.128-0.32-0.32c0-0.128 0.16-0.256 0.32-0.256zM10.048 9.376c0.8 0 1.472-0.64 1.472-1.472 0-0.768-0.64-1.408-1.344-1.44h-0.192c-0.768 0.064-1.344 0.64-1.344 1.44s0.64 1.472 1.408 1.472zM9.728 7.136v0.544c0 0.224 0.128 0.32 0.32 0.32s0.32-0.096 0.32-0.32v-0.544c0.32 0.128 0.512 0.416 0.512 0.768 0 0.448-0.384 0.832-0.832 0.832s-0.832-0.384-0.832-0.832c0-0.32 0.224-0.64 0.512-0.768zM13.888 9.376c0.8 0 1.472-0.64 1.472-1.472 0-0.768-0.64-1.408-1.344-1.44h-0.192c-0.768 0.064-1.344 0.64-1.344 1.44-0.064 0.8 0.64 1.472 1.408 1.472zM13.568 7.136v0.544c0 0.224 0.128 0.32 0.32 0.32s0.32-0.096 0.32-0.32v-0.544c0.32 0.128 0.512 0.416 0.512 0.768 0 0.448-0.384 0.832-0.832 0.832s-0.832-0.384-0.832-0.832c0-0.32 0.224-0.64 0.512-0.768zM17.6 6.464c-0.736 0.064-1.28 0.64-1.28 1.44s0.64 1.472 1.44 1.472 1.472-0.64 1.472-1.472c0-0.768-0.576-1.408-1.28-1.44h-0.352zM18.56 7.904c0 0.448-0.384 0.832-0.832 0.832s-0.832-0.384-0.832-0.832c0-0.32 0.224-0.64 0.512-0.768v0.544c0 0.224 0.128 0.32 0.32 0.32s0.32-0.096 0.32-0.32v-0.544c0.32 0.128 0.512 0.416 0.512 0.768zM21.568 9.376c0.8 0 1.472-0.64 1.472-1.472 0-0.768-0.64-1.408-1.344-1.44h-0.192c-0.768 0.064-1.344 0.64-1.344 1.44-0.064 0.8 0.64 1.472 1.408 1.472zM21.248 7.136v0.544c0 0.224 0.128 0.32 0.32 0.32s0.32-0.096 0.32-0.32v-0.544c0.32 0.128 0.512 0.416 0.512 0.768 0 0.448-0.384 0.832-0.832 0.832s-0.832-0.384-0.832-0.832c0-0.32 0.224-0.64 0.512-0.768zM23.040 18.72h-14.208c-0.48 0-0.896 0.384-0.896 0.896v7.68c0 0.448 0.384 0.864 0.896 0.864h14.208c0.48 0 0.896-0.384 0.896-0.896v-7.68c0-0.48-0.416-0.864-0.896-0.864zM23.264 27.264c0 0.128-0.096 0.256-0.256 0.256h-14.208c-0.128 0-0.256-0.096-0.256-0.256v-7.68c0-0.128 0.096-0.256 0.256-0.256h14.24c0.128 0 0.256 0.096 0.256 0.256v7.68z"></path>
  <path class="path2" d="M25.92 13.952v-0.32c0-0.48-0.448-0.896-0.96-0.896v-9.92c0-0.48-0.32-0.896-0.832-0.896h-16.224c-0.48 0-0.864 0.384-0.864 0.896v9.92c-0.544 0-0.96 0.416-0.96 0.96v0.256c0 0.512 0.448 0.96 0.96 0.96v0.64c-0.544 0-0.96 0.448-0.96 0.96v0.32c0 0.48 0.448 0.896 0.96 0.896v10.56c0 0.48 0.32 0.896 0.864 0.896h7.040c0 0.512 0.416 0.896 0.96 0.896h0.256c0.512 0 0.96-0.416 0.96-0.896h7.040c0.448 0 0.864-0.384 0.864-0.896v-10.56c0.512 0 0.896-0.416 0.896-0.96v-0.256c0-0.512-0.416-0.96-0.896-0.96v-0.64c0.48 0 0.864-0.448 0.864-0.96zM25.28 13.632v0.32c0 0.16-0.16 0.32-0.32 0.32v-0.896c0.192 0 0.32 0.128 0.32 0.32zM7.872 2.624h16.224c0.128 0 0.256 0.128 0.256 0.32v7.616h-16.672v-7.68c0-0.128 0.064-0.224 0.224-0.224zM6.72 13.984v-0.32c0-0.128 0.16-0.256 0.32-0.256v0.864c-0.192 0-0.32-0.128-0.32-0.32zM6.72 16.864v-0.32c0-0.16 0.16-0.32 0.32-0.32v0.896c-0.192 0-0.32-0.128-0.32-0.32zM16.16 29.44h-0.32c-0.128 0-0.256-0.16-0.256-0.32h0.864c0 0.192-0.16 0.32-0.32 0.32zM24.32 28.224c0 0.128-0.064 0.256-0.224 0.256h-16.224c-0.128 0-0.256-0.064-0.256-0.224v-16.96c0-0.128 0.096-0.256 0.256-0.256h16.224c0.128 0 0.256 0.096 0.256 0.256v16.96zM25.28 16.48v0.32c0 0.128-0.16 0.256-0.32 0.256v-0.864c0.192 0 0.32 0.128 0.32 0.32z"></path>
  <path class="path3" d="M23.68 16.64c0-0.192-0.16-0.32-0.32-0.32h-1.152l0.16-0.192c0.064-0.128 0.064-0.32-0.096-0.448-0.128-0.096-0.32-0.096-0.448 0.064l-0.544 0.704c-0.096 0.128-0.096 0.32 0 0.384l0.544 0.704c0.064 0.096 0.16 0.128 0.256 0.128s0.16 0 0.224-0.064c0.128-0.096 0.16-0.32 0.064-0.448l-0.192-0.192h1.184c0.16 0 0.32-0.128 0.32-0.32zM10.624 16.64c0-0.192-0.128-0.32-0.32-0.32h-1.12l0.16-0.192c0.096-0.128 0.096-0.32-0.064-0.448-0.128-0.096-0.32-0.096-0.448 0.064l-0.512 0.704c-0.128 0.128-0.128 0.32 0 0.384l0.512 0.704c0.064 0.096 0.16 0.128 0.256 0.128 0.064 0 0.128 0 0.192-0.064 0.128-0.096 0.16-0.32 0.064-0.448l-0.16-0.192h1.12c0.16 0 0.32-0.128 0.32-0.32zM8.544 14.144h1.12l-0.16 0.192c-0.096 0.128-0.096 0.32 0.064 0.448l0.16 0.064c0.096 0 0.192 0 0.256-0.128l0.544-0.704c0.096-0.128 0.096-0.32 0-0.384l-0.544-0.704c-0.096-0.128-0.32-0.16-0.448-0.064-0.16 0.096-0.192 0.32-0.096 0.448l0.16 0.192h-1.12c-0.192 0-0.32 0.128-0.32 0.32s0.128 0.32 0.32 0.32zM21.568 14.144h1.152l-0.192 0.192c-0.096 0.128-0.096 0.32 0.064 0.448l0.192 0.064c0.096 0 0.192 0 0.256-0.128l0.544-0.704c0.096-0.128 0.096-0.32 0-0.384l-0.544-0.736c-0.096-0.128-0.32-0.16-0.448-0.064-0.128 0.128-0.16 0.32-0.064 0.48l0.16 0.192h-1.152c-0.192 0-0.32 0.16-0.32 0.32s0.16 0.384 0.32 0.384z"></path>
</symbol>
<symbol id="Artem-Kovyazin-Guitar-Pedal" viewBox="0 0 32 32">
  <title>Artem-Kovyazin-Guitar-Pedal</title>
  <path class="path1" d="M16 12.864c0.96 0 1.728-0.768 1.728-1.728s-0.768-1.728-1.728-1.728-1.728 0.768-1.728 1.728c0 0.96 0.768 1.728 1.728 1.728zM15.68 10.112v0.704c0 0.192 0.128 0.32 0.32 0.32s0.32-0.128 0.32-0.32v-0.704c0.448 0.128 0.768 0.544 0.768 1.024 0 0.64-0.48 1.088-1.088 1.088-0.64 0-1.088-0.48-1.088-1.088 0-0.48 0.32-0.896 0.768-1.024zM16 5.12c0.512 0 0.96-0.416 0.96-0.96 0-0.48-0.448-0.896-0.96-0.896s-0.96 0.416-0.96 0.96c0 0.48 0.448 0.896 0.96 0.896zM16 3.904c0.16 0 0.32 0.128 0.32 0.32s-0.16 0.256-0.32 0.256-0.32-0.128-0.32-0.32 0.16-0.256 0.32-0.256zM11.68 9.504c1.472 0 2.656-1.184 2.656-2.656s-1.216-2.688-2.656-2.688-2.656 1.216-2.656 2.688 1.216 2.656 2.656 2.656zM11.68 5.76c0.64 0 1.088 0.48 1.088 1.088 0 0.64-0.512 1.088-1.12 1.088-0.64 0-1.088-0.48-1.088-1.088 0.064-0.64 0.544-1.088 1.12-1.088zM11.36 4.864v0.32c-0.8 0.128-1.408 0.832-1.408 1.664 0 0.96 0.8 1.728 1.76 1.728s1.728-0.768 1.728-1.728c0-0.832-0.64-1.536-1.44-1.696v-0.256c0.96 0.16 1.696 0.96 1.696 1.984 0 1.12-0.896 2.016-2.016 2.016s-2.016-0.896-2.016-2.016c0-1.024 0.736-1.856 1.696-1.984zM20.32 9.504c1.472 0 2.656-1.184 2.656-2.656s-1.216-2.688-2.656-2.688-2.656 1.216-2.656 2.688 1.184 2.656 2.656 2.656zM20.32 5.76c0.64 0 1.088 0.48 1.088 1.088 0 0.64-0.512 1.088-1.12 1.088s-1.088-0.48-1.088-1.088c0-0.64 0.512-1.088 1.12-1.088zM20 4.864v0.32c-0.8 0.128-1.408 0.832-1.408 1.664 0 0.96 0.8 1.728 1.76 1.728s1.728-0.768 1.728-1.728c0-0.832-0.64-1.536-1.44-1.696v-0.256c0.96 0.16 1.696 0.96 1.696 1.984 0 1.12-0.896 2.016-2.016 2.016s-2.016-0.896-2.016-2.016c0-1.024 0.736-1.856 1.696-1.984zM23.36 18.88h-14.848c-0.512 0-0.832 0.32-0.832 0.832v8c0 0.48 0.384 0.864 0.864 0.864h14.816c0.48 0 0.864-0.416 0.864-0.896v-8c0-0.448-0.384-0.864-0.896-0.864zM23.584 27.744c0 0.16-0.128 0.256-0.256 0.256h-14.816c-0.16 0-0.256-0.128-0.256-0.256v-8c0-0.16 0.096-0.256 0.224-0.256h14.88c0.128 0 0.224 0.096 0.224 0.224v8z"></path>
  <path class="path2" d="M25.344 15.040v-12.8c0-0.48-0.416-0.864-0.896-0.864h-16.896c-0.512 0-0.896 0.416-0.896 0.896v12.8c-0.512 0-0.96 0.416-0.96 0.96v0.32c0 0.48 0.416 0.96 0.96 0.96v0.416h-0.96v4.032h0.96v7.040c0 0.512 0.416 0.896 0.896 0.896h7.36c0 0.512 0.416 0.96 0.96 0.96h0.32c0.48 0 0.96-0.416 0.96-0.96h7.36c0.48 0 0.864-0.416 0.864-0.896v-11.52c0.512 0 0.96-0.448 0.96-0.96v-0.32c0-0.544-0.448-0.96-0.96-0.96zM7.552 1.984h16.896c0.16 0 0.256 0.128 0.256 0.256v11.584h-17.408v-11.52c0-0.192 0.096-0.32 0.256-0.32zM6.336 16.32v-0.32c0-0.16 0.128-0.32 0.32-0.32v0.96c-0.192 0-0.32-0.192-0.32-0.32zM6.336 21.12v-2.784h0.32v2.784h-0.32zM16.16 30.016h-0.32c-0.128 0-0.32-0.128-0.32-0.32h0.96c0 0.16-0.16 0.32-0.32 0.32zM24.704 28.8c0 0.16-0.128 0.256-0.256 0.256h-16.96c-0.128 0-0.224-0.128-0.224-0.256v-14.080c0-0.16 0.128-0.256 0.256-0.256h16.896c0.16 0 0.256 0.128 0.256 0.256v14.080zM25.664 16.32c0 0.128-0.128 0.32-0.32 0.32v-0.96c0.16 0 0.32 0.128 0.32 0.32v0.32z"></path>
</symbol>
<symbol id="Black-Urco-Guitar-Pedal" viewBox="0 0 32 32">
  <title>Black-Urco-Guitar-Pedal</title>
  <path class="path1" d="M21.12 12.864l0.448-10.624c0-0.416-0.32-0.736-0.64-0.736h-9.6c-0.32 0-0.64 0.32-0.64 0.704l0.192 10.592h-0.64v3.296h0.736l0.32 13.632c0 0.416 0.32 0.736 0.704 0.736h7.84c0.32 0 0.64-0.32 0.64-0.704l0.544-13.6h0.736v-3.296h-0.64zM10.56 15.84v-2.656h0.32l0.096 2.656h-0.416zM20.16 29.76c0 0.224-0.16 0.384-0.32 0.384h-7.84c-0.192 0-0.32-0.16-0.32-0.32l-0.64-27.616c0-0.224 0.096-0.384 0.32-0.384h9.44c0.192 0 0.32 0.16 0.32 0.32l-0.96 27.68zM21.44 15.84h-0.416l0.096-2.656h0.32v2.656z"></path>
  <path class="path2" d="M19.008 9.6h-5.952l0.384 12.576h5.12l0.64-12.48s-0.064-0.096-0.128-0.096z"></path>
  <path class="path3" d="M19.968 3.424h-7.68c-0.256 0-0.448 0.192-0.448 0.448l0.544 24c0 0.224 0.16 0.416 0.416 0.416h6.304c0.224 0 0.416-0.192 0.416-0.416l0.832-24c0-0.224-0.16-0.416-0.384-0.416zM18.88 4.256h0.32v4.384h-0.32v-4.416zM17.408 4.256h0.32v4.384h-0.32v-4.416zM15.936 4.256h0.32v4.384h-0.32v-4.416zM14.464 4.256h0.32v4.384h-0.32v-4.416zM12.992 4.256h0.32v4.384h-0.32v-4.416zM13.952 27.456h-0.32v-4.32h0.32v4.32zM15.456 27.456h-0.32v-4.32h0.32v4.32zM16.928 27.456h-0.384v-4.32h0.32v4.32zM18.368 27.456h-0.32v-4.32h0.32v4.32zM19.52 9.6l-0.64 12.544c0 0.224-0.256 0.384-0.512 0.384h-4.8c-0.224 0-0.448-0.16-0.448-0.384l-0.384-12.48c0-0.256 0.192-0.416 0.48-0.416h5.76c0.32 0 0.512 0.128 0.512 0.32z"></path>
</symbol>
<symbol id="Black-Urco-Guitar-Pedal-MXR" viewBox="0 0 32 32">
  <title>Black-Urco-Guitar-Pedal-MXR</title>
  <path class="path1" d="M19.2 13.024h-6.4c-0.544 0-0.96 0.416-0.96 0.896v1.6c0 0.544 0.416 0.96 0.96 0.96h6.4c0.544 0 0.96-0.416 0.96-0.96v-1.6c0-0.48-0.416-0.896-0.96-0.896zM19.744 15.584c0 0.256-0.224 0.48-0.512 0.48h-6.432c-0.32 0-0.544-0.224-0.544-0.512v-1.6c0-0.32 0.224-0.544 0.512-0.544h6.4c0.32 0 0.544 0.224 0.544 0.48v1.6zM16 19.648c0.736 0 1.28-0.576 1.28-1.28 0-0.768-0.544-1.344-1.28-1.344s-1.344 0.576-1.344 1.28c0 0.768 0.64 1.344 1.344 1.344zM16 17.6c0.416 0 0.736 0.32 0.736 0.736s-0.32 0.736-0.736 0.736c-0.416 0-0.736-0.32-0.736-0.736s0.32-0.736 0.736-0.736zM14.88 20.384l-1.088 1.92 1.12 1.856h2.176l1.12-1.92-1.12-1.856h-2.176zM16.8 23.776h-1.696l-0.864-1.504 0.864-1.472h1.728l0.864 1.472-0.864 1.504z"></path>
  <path class="path2" d="M14.656 22.272c0 0.736 0.576 1.344 1.28 1.344 0.768 0 1.376-0.64 1.376-1.344 0-0.736-0.576-1.28-1.28-1.28-0.768 0-1.344 0.544-1.344 1.28zM16.896 22.272c0 0.512-0.416 0.96-0.96 0.96s-0.896-0.512-0.896-0.992 0.416-0.96 0.96-0.96 0.896 0.448 0.896 0.96z"></path>
  <path class="path3" d="M25.024 13.024h-1.088v-9.824c0-0.96-0.736-1.664-1.6-1.664h-12.672c-0.896 0-1.6 0.736-1.6 1.6v9.92h-1.12v3.904h1.088v11.84c0 0.96 0.736 1.664 1.6 1.664h12.64c0.896 0 1.6-0.736 1.6-1.6v-11.904h1.12v-3.936zM7.424 16.544v-3.104h0.64v3.104h-0.64zM23.52 28.8c0 0.704-0.576 1.28-1.28 1.28h-12.512c-0.64 0-1.28-0.576-1.28-1.28v-25.6c0-0.704 0.64-1.28 1.28-1.28h12.608c0.64 0 1.28 0.576 1.28 1.28v25.6zM24.64 16.576h-0.704v-3.136h0.64v3.104z"></path>
  <path class="path4" d="M15.68 7.040c0-1.856-1.504-3.328-3.328-3.328s-3.296 1.472-3.296 3.328c0 1.792 1.472 3.296 3.296 3.296s3.328-1.504 3.328-3.296zM10.944 9.536l-1.408-1.728c-0.064-0.096-0.096-0.224-0.064-0.32l0.48-2.24c0.064-0.096 0.16-0.192 0.256-0.224l2.016-0.96 0.192-0.064h0.192l2.016 1.024c0.096 0 0.192 0.128 0.192 0.256l0.544 2.176c0 0.128 0 0.256-0.096 0.32l-1.504 1.824c0 0.096-0.16 0.16-0.32 0.16h-2.176c-0.128 0-0.256-0.064-0.32-0.16zM19.584 3.712c-1.824 0-3.328 1.472-3.328 3.296 0 1.792 1.504 3.296 3.328 3.296s3.296-1.472 3.296-3.264c0-1.856-1.472-3.328-3.296-3.328zM22.464 7.456c0 0.128 0 0.256-0.064 0.32l-1.408 1.824c-0.064 0.096-0.192 0.16-0.32 0.16h-2.24c-0.096 0-0.192-0.064-0.32-0.16l-1.344-1.728c-0.096-0.096-0.128-0.224-0.096-0.32l0.544-2.24c0-0.096 0.096-0.192 0.224-0.224l1.984-0.96 0.192-0.064h0.16l2.016 1.024c0.096 0 0.192 0.128 0.224 0.256l0.48 2.176z"></path>
  <path class="path5" d="M19.584 4.416l-2.016 0.96-0.512 2.176 1.376 1.728h2.24l1.376-1.728-0.512-2.176-1.984-0.96zM19.776 6.848h-0.384v-1.92h0.384v1.92zM14.88 7.552l-0.48-2.176-2.048-0.96-1.984 0.96-0.512 2.176 1.408 1.728h2.24l1.376-1.728zM12.576 6.848h-0.416v-1.92h0.416v1.92z"></path>
</symbol>

<symbol id="Freepik-amplifier" viewBox="0 0 32 32">
  <title>Freepik-amplifier</title>
  <path class="path1" d="M30.675 6.254h-29.349c-0.731 0-1.325 0.595-1.325 1.325v15.486c0 0.731 0.595 1.325 1.325 1.325h2.087v0.919c0 0.241 0.195 0.436 0.436 0.436h2.678c0.241 0 0.436-0.195 0.436-0.436v-0.919h18.090v0.919c0 0.241 0.195 0.436 0.436 0.436h2.678c0.241 0 0.436-0.195 0.436-0.436v-0.919h2.073c0.731 0 1.325-0.595 1.325-1.325v-15.486c0-0.731-0.595-1.325-1.325-1.325zM30.675 23.519h-1.165v-1.618h1.618v1.165c-0 0.25-0.203 0.453-0.453 0.453zM28.166 23.519h-24.804v-0.996h25.276v0.996h-0.472zM1.325 7.126h1.165v1.618h-1.618v-1.165c0-0.25 0.203-0.454 0.453-0.454zM28.638 21.464v0.187h-25.276v-0.187c0-0.241-0.195-0.436-0.436-0.436h-0.187v-3.486h26.521v3.486h-0.187c-0.241 0-0.436 0.195-0.436 0.436zM2.861 9.616l0.745 0.651-0.867 0.757v-1.408h0.121zM29.261 9.616v1.39l-0.846-0.739 0.745-0.651h0.101zM26.297 10.96c-0.181 0.158-0.2 0.434-0.041 0.615 0.086 0.099 0.207 0.149 0.328 0.149 0.102 0 0.204-0.035 0.287-0.108l0.881-0.77 1.295 1.131-1.295 1.131-3.252-2.841 1.295-1.131 1.295 1.131-0.792 0.692zM2.74 16.67v-1.069l1.529-1.336 1.294 1.13-1.458 1.274h-1.364zM7.519 13.687l-1.295 1.131-1.294-1.131 1.295-1.131 1.294 1.131zM8.844 13.687l1.295-1.131 1.295 1.131-1.295 1.131-1.295-1.131zM12.759 13.686l1.294-1.13 1.295 1.131-1.294 1.13-1.295-1.131zM16.673 13.687l1.295-1.131 1.294 1.131-1.295 1.131-1.294-1.131zM20.587 13.687l1.295-1.131 1.295 1.131-1.295 1.131-1.295-1.131zM8.182 14.265l1.295 1.131-1.295 1.131-1.295-1.131 1.295-1.131zM12.097 14.265l1.295 1.131-1.295 1.131-1.295-1.131 1.295-1.131zM16.010 14.266l1.294 1.131-1.294 1.13-1.294-1.131 1.294-1.13zM19.924 14.266l1.295 1.131-1.295 1.131-1.294-1.131 1.295-1.131zM23.838 14.265l1.295 1.131-1.295 1.131-1.295-1.131 1.295-1.131zM24.501 13.687l0.792-0.692c0.181-0.158 0.2-0.434 0.041-0.615s-0.434-0.2-0.615-0.041l-0.881 0.77-1.295-1.131 1.294-1.131 3.252 2.841-1.294 1.131-1.295-1.131zM21.219 11.977l-1.295 1.131-1.294-1.131 1.295-1.131 1.294 1.131zM17.305 11.977l-1.295 1.131-1.295-1.131 1.295-1.131 1.295 1.131zM13.39 11.977l-1.294 1.13-1.295-1.131 1.294-1.13 1.295 1.131zM9.477 11.976l-1.295 1.131-1.294-1.13 1.295-1.131 1.294 1.13zM21.881 11.398l-1.294-1.131 1.294-1.13 1.294 1.131-1.294 1.131zM17.967 11.398l-1.295-1.131 1.295-1.131 1.295 1.131-1.295 1.131zM14.053 11.398l-1.295-1.131 1.295-1.131 1.295 1.131-1.295 1.131zM10.139 11.398l-1.294-1.13 1.294-1.13 1.294 1.13-1.294 1.13zM6.226 11.398l-1.295-1.131 1.295-1.131 1.294 1.131-1.295 1.131zM5.563 11.977l-1.295 1.131-1.295-1.131 1.295-1.131 1.295 1.131zM3.606 13.687l-0.866 0.757v-1.514l0.866 0.757zM6.225 15.975l0.796 0.695h-1.591l0.796-0.695zM10.139 15.975l0.796 0.695h-1.591l0.796-0.695zM14.054 15.975l0.796 0.695h-1.592l0.796-0.695zM17.967 15.975l0.796 0.695h-1.591l0.796-0.695zM21.881 15.975l0.796 0.695h-1.591l0.796-0.695zM25.795 15.975l0.796 0.695h-1.591l0.796-0.695zM28.414 13.687l0.846-0.739v1.478l-0.846-0.739zM27.916 16.67l-1.458-1.274 1.294-1.131 1.509 1.318v1.087h-1.344zM23.838 9.689l-0.795-0.695h1.591l-0.795 0.695zM19.924 9.688l-0.795-0.695h1.591l-0.795 0.695zM16.010 9.688l-0.795-0.695h1.591l-0.795 0.695zM12.096 9.688l-0.795-0.695h1.591l-0.795 0.695zM8.183 9.688l-0.795-0.695h1.59l-0.795 0.695zM4.269 9.689l-0.795-0.695h1.591l-0.795 0.695zM28.638 8.122h-1.027c-0.241 0-0.436 0.195-0.436 0.436s0.195 0.436 0.436 0.436h0.937l-0.795 0.695-1.343-1.174c-0.022-0.22-0.208-0.393-0.434-0.393h-0.165c-0.004-0-0.008 0-0.012 0h-0.006c-0.004 0-0.008-0-0.012 0h-7.798c-0.004-0-0.008 0-0.012 0h-0.005c-0.004 0-0.008-0-0.012 0h-3.842c-0.036-0.005-0.073-0.005-0.11 0h-7.76c-0.005-0-0.010 0-0.014 0h-0.004c-0.004 0-0.008-0-0.011 0h-2.849v-0.996h25.276v0.996zM1.868 9.616v2.291c-0.003 0.023-0.004 0.046-0.004 0.069-0.001 0.023 0.001 0.046 0.004 0.069v3.303c-0.005 0.039-0.005 0.078 0 0.117v1.64c0 0 0 0 0 0.001s0 0 0 0.001v3.922h-0.996v-11.412h0.996zM30.132 21.028v-3.921c0-0 0-0.001 0-0.001s-0-0.001-0-0.001v-7.489h0.996v11.412h-0.996zM31.128 8.744h-1.618v-1.618h1.165c0.25 0 0.453 0.203 0.453 0.453v1.165zM0.872 21.9h1.618v1.618h-1.165c-0.25 0-0.453-0.203-0.453-0.453v-1.165zM6.090 24.874h-1.806v-0.484h1.806v0.484zM27.73 24.874h-1.806v-0.484h1.806v0.484zM23.726 18.158c-0.793 0-1.439 0.645-1.439 1.439s0.645 1.439 1.439 1.439 1.439-0.645 1.439-1.439-0.645-1.439-1.439-1.439zM23.726 20.163c-0.313 0-0.567-0.254-0.567-0.567s0.254-0.567 0.567-0.567 0.567 0.254 0.567 0.567-0.254 0.567-0.567 0.567zM26.827 18.484c-0.586 0-1.063 0.477-1.063 1.063s0.477 1.063 1.063 1.063 1.063-0.477 1.063-1.063c0-0.586-0.477-1.063-1.063-1.063zM26.827 19.739c-0.106 0-0.192-0.086-0.192-0.192s0.086-0.192 0.192-0.192c0.106 0 0.192 0.086 0.192 0.192s-0.086 0.192-0.192 0.192zM13.712 18.158c-0.793 0-1.439 0.645-1.439 1.439s0.645 1.439 1.439 1.439 1.439-0.645 1.439-1.439-0.645-1.439-1.439-1.439zM13.712 20.163c-0.313 0-0.567-0.254-0.567-0.567s0.254-0.567 0.567-0.567 0.567 0.254 0.567 0.567-0.254 0.567-0.567 0.567zM20.388 18.158c-0.384 0-0.746 0.15-1.017 0.421s-0.421 0.633-0.421 1.017c0 0.384 0.15 0.746 0.421 1.017s0.633 0.421 1.017 0.421c0.384 0 0.746-0.15 1.017-0.421s0.421-0.633 0.421-1.017c0-0.384-0.15-0.746-0.421-1.017s-0.633-0.421-1.017-0.421zM20.789 19.997c-0.107 0.107-0.249 0.166-0.401 0.166s-0.294-0.059-0.401-0.166-0.166-0.249-0.166-0.401c0-0.151 0.059-0.294 0.166-0.401s0.249-0.166 0.401-0.166 0.294 0.059 0.401 0.166c0.107 0.107 0.166 0.249 0.166 0.401s-0.059 0.294-0.166 0.401zM9.357 18.579c-0.272 0.272-0.421 0.633-0.421 1.017s0.15 0.746 0.421 1.017c0.28 0.28 0.649 0.421 1.017 0.421s0.737-0.14 1.017-0.421c0.272-0.272 0.421-0.633 0.421-1.017s-0.15-0.746-0.421-1.017c-0.561-0.561-1.474-0.561-2.035 0zM10.775 19.997c-0.221 0.221-0.581 0.221-0.802 0-0.107-0.107-0.166-0.249-0.166-0.401s0.059-0.294 0.166-0.401c0.111-0.11 0.256-0.166 0.401-0.166s0.29 0.055 0.401 0.166c0.107 0.107 0.166 0.249 0.166 0.401s-0.059 0.294-0.166 0.401zM16.033 18.579c-0.272 0.272-0.421 0.633-0.421 1.017s0.15 0.746 0.421 1.017c0.28 0.28 0.649 0.421 1.017 0.421s0.737-0.14 1.017-0.421c0.272-0.272 0.421-0.633 0.421-1.017s-0.15-0.746-0.421-1.017c-0.561-0.561-1.474-0.561-2.035 0zM17.451 19.997c-0.221 0.221-0.581 0.221-0.802 0-0.107-0.107-0.166-0.249-0.166-0.401s0.059-0.294 0.166-0.401c0.11-0.11 0.256-0.166 0.401-0.166s0.29 0.055 0.401 0.166c0.107 0.107 0.166 0.249 0.166 0.401s-0.059 0.294-0.166 0.401zM5.173 17.847h-1.418c-0.241 0-0.436 0.195-0.436 0.436v2.628c0 0.241 0.195 0.436 0.436 0.436h1.418c0.241 0 0.436-0.195 0.436-0.436v-2.628c0-0.241-0.195-0.436-0.436-0.436zM4.737 19.161h-0.546v-0.442h0.546v0.442zM4.191 20.033h0.546v0.442h-0.546v-0.442zM7.649 17.847h-1.418c-0.241 0-0.436 0.195-0.436 0.436v2.628c0 0.241 0.195 0.436 0.436 0.436h1.418c0.241 0 0.436-0.195 0.436-0.436v-2.628c0-0.241-0.195-0.436-0.436-0.436zM7.213 19.161h-0.546v-0.442h0.546v0.442zM6.667 20.033h0.546v0.442h-0.546v-0.442z"></path>
</symbol>
<symbol id="Freepik-pedal-for-guitar" viewBox="0 0 32 32">
  <title>Freepik-pedal-for-guitar</title>
  <path class="path1" d="M21.959 21.987h-11.859c-0.166 0-0.3-0.135-0.3-0.3s0.135-0.3 0.3-0.3h11.859c0.166 0 0.3 0.135 0.3 0.3s-0.134 0.3-0.3 0.3z"></path>
  <path class="path2" d="M21.959 23.325h-11.859c-0.166 0-0.3-0.135-0.3-0.3s0.135-0.3 0.3-0.3h11.859c0.166 0 0.3 0.135 0.3 0.3s-0.134 0.3-0.3 0.3z"></path>
  <path class="path3" d="M21.959 24.664h-11.859c-0.166 0-0.3-0.135-0.3-0.3s0.135-0.3 0.3-0.3h11.859c0.166 0 0.3 0.135 0.3 0.3s-0.134 0.3-0.3 0.3z"></path>
  <path class="path4" d="M21.959 26.002h-11.859c-0.166 0-0.3-0.135-0.3-0.3s0.135-0.3 0.3-0.3h11.859c0.166 0 0.3 0.135 0.3 0.3s-0.134 0.3-0.3 0.3z"></path>
  <path class="path5" d="M21.959 27.341h-11.859c-0.166 0-0.3-0.135-0.3-0.3s0.135-0.3 0.3-0.3h11.859c0.166 0 0.3 0.135 0.3 0.3s-0.134 0.3-0.3 0.3z"></path>
  <path class="path6" d="M21.959 28.679h-11.859c-0.166 0-0.3-0.135-0.3-0.3s0.135-0.3 0.3-0.3h11.859c0.166 0 0.3 0.135 0.3 0.3s-0.134 0.3-0.3 0.3z"></path>
  <path class="path7" d="M23.514 19.57h-14.971c-0.166 0-0.3 0.135-0.3 0.3v10.325c0 0.166 0.135 0.3 0.3 0.3h14.971c0.166 0 0.3-0.135 0.3-0.3v-10.325c0-0.166-0.135-0.3-0.3-0.3zM23.214 29.895h-14.37v-9.724h14.37v9.724z"></path>
  <path class="path8" d="M9.427 13.128c0.059 0.069 0.144 0.105 0.228 0.105 0.069 0 0.139-0.024 0.196-0.072 0.126-0.108 0.14-0.298 0.032-0.424l-0.545-0.635h1.75c0.166 0 0.3-0.135 0.3-0.3s-0.135-0.3-0.3-0.3h-1.75l0.545-0.635c0.108-0.126 0.094-0.316-0.032-0.424s-0.316-0.094-0.424 0.032l-0.971 1.131c-0.097 0.113-0.097 0.279 0 0.391l0.971 1.131z"></path>
  <path class="path9" d="M9.427 17.255c0.059 0.069 0.144 0.105 0.228 0.105 0.069 0 0.139-0.024 0.196-0.073 0.126-0.108 0.14-0.298 0.032-0.424l-0.545-0.635h1.75c0.166 0 0.3-0.135 0.3-0.3s-0.135-0.3-0.3-0.3h-1.75l0.545-0.635c0.108-0.126 0.094-0.316-0.032-0.424s-0.316-0.094-0.424 0.032l-0.971 1.131c-0.097 0.113-0.097 0.279 0 0.391l0.971 1.131z"></path>
  <path class="path10" d="M20.97 16.229h1.75l-0.545 0.635c-0.108 0.126-0.094 0.316 0.032 0.424 0.057 0.049 0.126 0.073 0.196 0.073 0.085 0 0.169-0.036 0.228-0.105l0.971-1.131c0.097-0.113 0.097-0.279 0-0.391l-0.971-1.131c-0.108-0.126-0.298-0.14-0.424-0.032s-0.14 0.298-0.032 0.424l0.545 0.635h-1.75c-0.166 0-0.3 0.135-0.3 0.3s0.135 0.301 0.3 0.301z"></path>
  <path class="path11" d="M20.97 12.101h1.75l-0.545 0.635c-0.108 0.126-0.094 0.316 0.032 0.424 0.057 0.049 0.126 0.072 0.196 0.072 0.085 0 0.169-0.036 0.228-0.105l0.971-1.131c0.097-0.113 0.097-0.279 0-0.391l-0.971-1.131c-0.108-0.126-0.298-0.14-0.424-0.032s-0.14 0.298-0.032 0.424l0.545 0.635h-1.75c-0.166 0-0.3 0.135-0.3 0.3s0.135 0.301 0.3 0.301z"></path>
  <path class="path12" d="M26.298 13.351c0.166 0 0.3-0.135 0.3-0.3v-2.5c0-0.166-0.135-0.3-0.3-0.3h-1.016v-0.732c0-0.597-0.461-1.087-1.046-1.135v-8.384h-16.412v8.384c-0.585 0.048-1.047 0.538-1.047 1.135v0.732h-1.016c-0.166 0-0.3 0.135-0.3 0.3v2.5c0 0.166 0.135 0.3 0.3 0.3h1.016v0.891h-1.074c-0.166 0-0.3 0.135-0.3 0.3v2.5c0 0.166 0.135 0.3 0.3 0.3h1.074v13.517c0 0.628 0.511 1.139 1.139 1.139h16.226c0.628 0 1.14-0.511 1.14-1.139v-13.517h1.016c0.166 0 0.3-0.135 0.3-0.3v-2.5c0-0.166-0.135-0.3-0.3-0.3h-1.016v-0.891h1.016zM6.061 12.75v-1.899h0.716v1.899h-0.716zM6.003 16.743v-1.899h0.774v1.899h-0.774zM23.635 0.601v7.778h-15.21v-7.778h15.21zM24.68 30.86c0 0.297-0.242 0.539-0.539 0.539h-16.226c-0.297 0-0.539-0.242-0.539-0.539v-21.342c0-0.297 0.242-0.539 0.539-0.539h16.226c0.297 0 0.539 0.242 0.539 0.539v21.342zM25.997 10.851v1.899h-0.716v-1.899h0.716zM25.997 14.844v1.899h-0.716v-1.899h0.716z"></path>
  <path class="path13" d="M10.411 6.792c0.839 0 1.521-0.682 1.521-1.521s-0.682-1.521-1.521-1.521-1.521 0.682-1.521 1.521 0.682 1.521 1.521 1.521zM10.111 4.402v0.462c0 0.166 0.135 0.3 0.3 0.3s0.3-0.135 0.3-0.3v-0.462c0.36 0.125 0.62 0.467 0.62 0.869 0 0.507-0.413 0.92-0.92 0.92s-0.92-0.413-0.92-0.92c-0-0.402 0.26-0.744 0.62-0.869z"></path>
  <path class="path14" d="M14.145 6.792c0.839 0 1.521-0.682 1.521-1.521s-0.682-1.521-1.521-1.521-1.521 0.682-1.521 1.521 0.682 1.521 1.521 1.521zM13.845 4.402v0.462c0 0.166 0.135 0.3 0.3 0.3s0.3-0.135 0.3-0.3v-0.462c0.36 0.125 0.62 0.467 0.62 0.869 0 0.507-0.413 0.92-0.92 0.92s-0.92-0.413-0.92-0.92c0-0.402 0.26-0.744 0.62-0.869z"></path>
  <path class="path15" d="M16.358 5.271c0 0.839 0.682 1.521 1.521 1.521s1.521-0.682 1.521-1.521-0.682-1.521-1.521-1.521c-0.839-0-1.521 0.682-1.521 1.521zM17.579 4.402v0.462c0 0.166 0.135 0.3 0.3 0.3s0.3-0.135 0.3-0.3v-0.462c0.36 0.125 0.62 0.467 0.62 0.869 0 0.507-0.413 0.92-0.92 0.92s-0.92-0.413-0.92-0.92c0-0.402 0.26-0.744 0.62-0.869z"></path>
  <path class="path16" d="M21.613 6.792c0.839 0 1.521-0.682 1.521-1.521s-0.682-1.521-1.521-1.521c-0.839 0-1.521 0.682-1.521 1.521s0.682 1.521 1.521 1.521zM21.313 4.402v0.462c0 0.166 0.135 0.3 0.3 0.3s0.3-0.135 0.3-0.3v-0.462c0.36 0.125 0.62 0.467 0.62 0.869 0 0.507-0.413 0.92-0.92 0.92s-0.92-0.413-0.92-0.92c0-0.402 0.26-0.744 0.62-0.869z"></path>
  <path class="path17" d="M16.029 3.217c0.502 0 0.911-0.409 0.911-0.911s-0.409-0.911-0.911-0.911-0.911 0.409-0.911 0.911 0.409 0.911 0.911 0.911zM16.029 1.996c0.171 0 0.31 0.139 0.31 0.31s-0.139 0.31-0.31 0.31-0.31-0.139-0.31-0.31c0-0.171 0.139-0.31 0.31-0.31z"></path>
</symbol>
<symbol id="Humphries-guitar-pedal" viewBox="0 0 32 32">
  <title>Humphries-guitar-pedal</title>
  <path class="path1" d="M4.002 12.496c-0.278 0-0.506 0.229-0.506 0.506v1.993c0 0.278 0.229 0.506 0.506 0.506 0.27 0 0.49-0.229 0.49-0.506v-1.993c0-0.278-0.221-0.506-0.49-0.506zM27.998 12.496c-0.278 0-0.49 0.229-0.49 0.506v1.993c0 0.278 0.212 0.506 0.49 0.506s0.49-0.229 0.49-0.506v-1.993c0-0.278-0.212-0.506-0.49-0.506zM21.995 5.497c-0.817 0-1.495 0.678-1.495 1.503 0 0.817 0.67 1.503 1.495 1.503 0.833 0 1.503-0.67 1.503-1.495 0-0.817-0.67-1.503-1.503-1.503zM17.993 5.497c-0.817 0-1.495 0.678-1.495 1.503 0 0.817 0.67 1.503 1.503 1.503 0.817 0 1.495-0.67 1.495-1.495 0-0.817-0.67-1.503-1.495-1.503zM13.991 5.497c-0.817 0-1.495 0.678-1.495 1.503 0 0.817 0.67 1.503 1.503 1.503 0.817 0 1.503-0.67 1.503-1.495 0-0.817-0.678-1.503-1.503-1.503zM9.989 5.497c-0.817 0-1.486 0.678-1.486 1.503 0 0.817 0.678 1.503 1.503 1.503 0.833 0 1.503-0.67 1.503-1.495 0-0.817-0.67-1.503-1.503-1.503zM7.514 29.999h16.988c0.286 0 0.515-0.229 0.515-0.49v-11.018c0-0.278-0.221-0.49-0.49-0.49h-17.037c-0.278 0-0.49 0.212-0.49 0.49v11.002c0 0.27 0.221 0.49 0.49 0.49zM24.502 32c-16.319 0-8.151 0 0 0z"></path>
  <path class="path2" style="fill: var(--border-color)" d="M24.502 11.002c0 0.27-0.229 0.49-0.506 0.49h-16.008c-0.261 0-0.49-0.221-0.49-0.49v-8.004c0-0.27 0.229-0.49 0.49-0.49h16.008c0.278 0 0.49 0.221 0.49 0.49zM23.996 2.001h-16.008c-0.539 0-0.98 0.449-0.98 0.996v8.004c0 0.547 0.441 0.996 0.98 0.996h16.008c0.547 0 1.005-0.457 1.005-1.005v-8.004c0-0.547-0.441-0.996-0.996-0.996zM25.997 16.498h-19.994v-13.999c0-0.817 0.67-1.503 1.495-1.503h16.988c0.841 0 1.511 0.678 1.511 1.503v13.999zM25.997 29.501c0 0.817-0.67 1.495-1.503 1.495h-17.005c-0.817 0-1.495-0.67-1.495-1.495v-12.496h19.994v12.496zM24.502 0h-17.013c-1.364 0-2.491 1.127-2.491 2.499v27.002c0 1.372 1.127 2.499 2.499 2.499h16.988c1.388 0 2.507-1.127 2.507-2.499v-27.002c0-1.372-1.119-2.499-2.491-2.499z"></path>
</symbol>
<symbol id="Freepik-car-radio" viewBox="0 0 32 32">
  <title>Freepik-car-radio</title>
  <path class="path1" d="M30.352 22.325h-28.703c-0.909 0-1.648-0.739-1.648-1.648v-9.354c0-0.909 0.739-1.648 1.648-1.648h28.703c0.909 0 1.648 0.739 1.648 1.648v9.354c0 0.909-0.739 1.648-1.648 1.648zM1.648 10.288c-0.571 0-1.035 0.464-1.035 1.035v9.354c0 0.571 0.464 1.035 1.035 1.035h28.703c0.571 0 1.035-0.464 1.035-1.035v-9.354c0-0.571-0.464-1.035-1.035-1.035h-28.703zM28.763 20.153h-3.294c-0.628 0-1.139-0.511-1.139-1.138v-0.017c0-0.628 0.511-1.139 1.139-1.139h3.294c0.628 0 1.139 0.511 1.139 1.139v0.017c0 0.628-0.511 1.138-1.139 1.138zM27.423 19.54h1.34c0.29 0 0.525-0.236 0.525-0.525v-0.017c0-0.29-0.236-0.525-0.525-0.525h-1.34v1.067zM25.469 18.473c-0.29 0-0.525 0.236-0.525 0.525v0.017c0 0.29 0.236 0.525 0.525 0.525h1.34v-1.067h-1.34zM22.311 20.153h-19.704c-0.169 0-0.307-0.137-0.307-0.307v-4.038c0-0.169 0.137-0.307 0.307-0.307h19.704c0.169 0 0.307 0.137 0.307 0.307v4.038c0 0.169-0.137 0.307-0.307 0.307zM2.913 19.54h19.091v-3.425h-19.091v3.425zM19.114 19.124h-1.035c-0.169 0-0.307-0.137-0.307-0.307s0.137-0.307 0.307-0.307h1.035c0.169 0 0.307 0.137 0.307 0.307s-0.137 0.307-0.307 0.307zM16.576 19.124h-1.035c-0.169 0-0.307-0.137-0.307-0.307s0.137-0.307 0.307-0.307h1.035c0.169 0 0.307 0.137 0.307 0.307s-0.137 0.307-0.307 0.307zM14.037 19.124h-1.035c-0.169 0-0.307-0.137-0.307-0.307s0.137-0.307 0.307-0.307h1.035c0.169 0 0.307 0.137 0.307 0.307s-0.137 0.307-0.307 0.307zM11.498 19.124h-1.035c-0.169 0-0.307-0.137-0.307-0.307s0.137-0.307 0.307-0.307h1.035c0.169 0 0.307 0.137 0.307 0.307s-0.137 0.307-0.307 0.307zM8.96 19.124h-1.035c-0.169 0-0.307-0.137-0.307-0.307s0.137-0.307 0.307-0.307h1.035c0.169 0 0.307 0.137 0.307 0.307s-0.137 0.307-0.307 0.307zM6.421 19.124h-1.035c-0.169 0-0.307-0.137-0.307-0.307s0.137-0.307 0.307-0.307h1.035c0.169 0 0.307 0.137 0.307 0.307s-0.137 0.307-0.307 0.307zM16.576 18.287h-1.035c-0.169 0-0.307-0.137-0.307-0.307s0.137-0.307 0.307-0.307h1.035c0.169 0 0.307 0.137 0.307 0.307s-0.137 0.307-0.307 0.307zM14.037 18.287h-1.035c-0.169 0-0.307-0.137-0.307-0.307s0.137-0.307 0.307-0.307h1.035c0.169 0 0.307 0.137 0.307 0.307s-0.137 0.307-0.307 0.307zM11.498 18.287h-1.035c-0.169 0-0.307-0.137-0.307-0.307s0.137-0.307 0.307-0.307h1.035c0.169 0 0.307 0.137 0.307 0.307s-0.137 0.307-0.307 0.307zM8.96 18.287h-1.035c-0.169 0-0.307-0.137-0.307-0.307s0.137-0.307 0.307-0.307h1.035c0.169 0 0.307 0.137 0.307 0.307s-0.137 0.307-0.307 0.307zM16.576 17.45h-1.035c-0.169 0-0.307-0.137-0.307-0.307s0.137-0.307 0.307-0.307h1.035c0.169 0 0.307 0.137 0.307 0.307s-0.137 0.307-0.307 0.307zM11.498 17.45h-1.035c-0.169 0-0.307-0.137-0.307-0.307s0.137-0.307 0.307-0.307h1.035c0.169 0 0.307 0.137 0.307 0.307s-0.137 0.307-0.307 0.307zM27.116 17.342c-1.536 0-2.786-1.25-2.786-2.786s1.25-2.786 2.786-2.786 2.786 1.25 2.786 2.786c0 1.536-1.25 2.786-2.786 2.786zM27.116 12.384c-1.198 0-2.172 0.974-2.172 2.172s0.974 2.172 2.172 2.172 2.172-0.974 2.172-2.172-0.975-2.172-2.172-2.172zM27.116 16.027c-0.811 0-1.471-0.66-1.471-1.471s0.66-1.471 1.471-1.471 1.471 0.66 1.471 1.471-0.66 1.471-1.471 1.471zM27.116 13.699c-0.473 0-0.858 0.385-0.858 0.857s0.385 0.858 0.858 0.858 0.858-0.385 0.858-0.858c0-0.473-0.385-0.857-0.858-0.857zM22.311 14.735h-3.118c-0.169 0-0.307-0.137-0.307-0.307v-0.971c0-0.169 0.137-0.307 0.307-0.307h3.118c0.169 0 0.307 0.137 0.307 0.307v0.971c0 0.169-0.137 0.307-0.307 0.307zM19.5 14.122h2.505v-0.358h-2.505v0.358zM16.782 14.735h-3.118c-0.169 0-0.307-0.137-0.307-0.307v-0.971c0-0.169 0.137-0.307 0.307-0.307h3.118c0.169 0 0.307 0.137 0.307 0.307v0.971c0 0.169-0.137 0.307-0.307 0.307zM13.971 14.122h2.505v-0.358h-2.505v0.358zM11.254 14.735h-3.118c-0.169 0-0.307-0.137-0.307-0.307v-0.971c0-0.169 0.137-0.307 0.307-0.307h3.118c0.169 0 0.307 0.137 0.307 0.307v0.971c0 0.169-0.137 0.307-0.307 0.307zM8.442 14.122h2.505v-0.358h-2.505v0.358zM5.725 14.735h-3.118c-0.169 0-0.307-0.137-0.307-0.307v-0.971c0-0.169 0.137-0.307 0.307-0.307h3.118c0.169 0 0.307 0.137 0.307 0.307v0.971c0 0.169-0.137 0.307-0.307 0.307zM2.913 14.122h2.505v-0.358h-2.505v0.358zM22.311 12.384h-19.704c-0.169 0-0.307-0.137-0.307-0.307s0.137-0.307 0.307-0.307h19.704c0.169 0 0.307 0.137 0.307 0.307s-0.137 0.307-0.307 0.307z"></path>
</symbol>
<symbol id="Freepik-music-recorder" viewBox="0 0 32 32">
  <title>Freepik-music-recorder</title>
  <path class="path1" d="M29.747 25.163h-2.649c-0.163 0-0.294-0.132-0.294-0.294v-1.026h-21.446v1.026c0 0.163-0.132 0.294-0.294 0.294h-2.649c-0.163 0-0.294-0.132-0.294-0.294v-1.026h-0.664c-0.803 0-1.456-0.653-1.456-1.456v-5.226c0-0.803 0.653-1.456 1.456-1.456h0.664v-0.732h-0.664c-0.803 0-1.456-0.653-1.456-1.456v-5.226c0-0.803 0.653-1.456 1.456-1.456h29.089c0.803 0 1.456 0.653 1.456 1.456v5.226c0 0.803-0.653 1.456-1.456 1.456h-0.503v0.732h0.503c0.803 0 1.456 0.653 1.456 1.456v5.226c0 0.803-0.653 1.456-1.456 1.456h-0.503v1.026c0 0.162-0.132 0.294-0.294 0.294zM27.392 24.574h2.060v-0.732h-2.060v0.732zM2.708 24.574h2.060v-0.732h-2.060v0.732zM29.747 23.254h0.798c0.478 0 0.867-0.389 0.867-0.867v-5.226c0-0.478-0.389-0.867-0.867-0.867h-29.089c-0.478 0-0.867 0.389-0.867 0.867v5.226c0 0.478 0.389 0.867 0.867 0.867h28.291zM27.392 15.705h2.060v-0.732h-2.060v0.732zM5.357 15.705h21.445v-0.732h-21.445v0.732zM2.708 15.705h2.060v-0.732h-2.060v0.732zM29.747 14.385h0.798c0.478 0 0.867-0.389 0.867-0.867v-5.226c0-0.478-0.389-0.867-0.867-0.867h-29.089c-0.478 0-0.867 0.389-0.867 0.867v5.226c0 0.478 0.389 0.867 0.867 0.867h28.291zM19.368 22.275h-16.954c-0.163 0-0.294-0.132-0.294-0.294v-0.806c0-0.004 0-0.009 0-0.013v-3.651c0-0.163 0.132-0.294 0.294-0.294h16.954c0.163 0 0.294 0.132 0.294 0.294v3.654c0 0.002 0 0.005 0 0.007v0.809c0 0.163-0.132 0.295-0.294 0.295zM2.708 21.686h16.365v-0.317c-0.758-0.283-3.853-1.329-8.182-1.329-4.337 0-7.425 1.046-8.182 1.329v0.317zM2.708 17.804v2.936c0.774-0.277 2.598-0.846 5.166-1.126l-0.135-1.11c-0.020-0.161 0.095-0.308 0.257-0.328 0.162-0.019 0.308 0.095 0.328 0.257l0.137 1.124c0.755-0.066 1.567-0.106 2.43-0.106 4.149 0 7.132 0.914 8.182 1.29v-2.936h-16.365zM28.078 21.738c-1.083 0-1.964-0.881-1.964-1.964s0.881-1.964 1.964-1.964 1.964 0.881 1.964 1.964-0.881 1.964-1.964 1.964zM27.783 18.431c-0.617 0.135-1.080 0.686-1.080 1.343 0 0.758 0.617 1.375 1.375 1.375s1.375-0.617 1.375-1.375c0-0.657-0.463-1.208-1.080-1.343v0.378c0 0.163-0.132 0.294-0.294 0.294s-0.294-0.132-0.294-0.294v-0.378zM23.031 21.738c-1.083 0-1.964-0.881-1.964-1.964s0.881-1.964 1.964-1.964c1.083 0 1.964 0.881 1.964 1.964s-0.881 1.964-1.964 1.964zM23.031 18.399c-0.758 0-1.375 0.617-1.375 1.375s0.617 1.375 1.375 1.375 1.375-0.617 1.375-1.375c0-0.151-0.024-0.296-0.070-0.432l-0.345 0.239c-0.134 0.092-0.317 0.059-0.41-0.075s-0.059-0.317 0.075-0.41l0.378-0.261c-0.251-0.268-0.608-0.436-1.003-0.436zM29.747 13.29c-0.163 0-0.294-0.132-0.294-0.294v-1.614h-0.259c-0.163 0-0.294-0.132-0.294-0.294s0.132-0.294 0.294-0.294h0.259v-1.89c0-0.163 0.132-0.294 0.294-0.294s0.294 0.132 0.294 0.294v1.89h0.259c0.163 0 0.294 0.132 0.294 0.294s-0.132 0.294-0.294 0.294h-0.259v1.614c0 0.163-0.132 0.294-0.294 0.294zM27.65 13.29c-0.163 0-0.294-0.132-0.294-0.294v-0.896h-0.259c-0.163 0-0.294-0.132-0.294-0.294s0.132-0.294 0.294-0.294h0.259v-2.609c0-0.163 0.132-0.294 0.294-0.294s0.294 0.132 0.294 0.294v2.609h0.259c0.163 0 0.294 0.132 0.294 0.294s-0.132 0.294-0.294 0.294h-0.259v0.896c0 0.163-0.132 0.294-0.294 0.294zM25.554 13.29c-0.163 0-0.294-0.132-0.294-0.294v-2.732h-0.259c-0.163 0-0.294-0.132-0.294-0.294s0.132-0.294 0.294-0.294h0.259v-0.772c0-0.163 0.132-0.294 0.294-0.294s0.294 0.132 0.294 0.294v0.772h0.259c0.163 0 0.294 0.132 0.294 0.294s-0.132 0.294-0.294 0.294h-0.259v2.732c0 0.163-0.132 0.294-0.294 0.294zM23.458 13.29c-0.163 0-0.294-0.132-0.294-0.294v-1.723h-0.259c-0.163 0-0.294-0.132-0.294-0.294s0.132-0.294 0.294-0.294h0.259v-1.781c0-0.163 0.132-0.294 0.294-0.294s0.294 0.132 0.294 0.294v1.781h0.259c0.163 0 0.294 0.132 0.294 0.294s-0.132 0.294-0.294 0.294h-0.259v1.723c0 0.163-0.132 0.294-0.294 0.294zM21.362 13.29c-0.163 0-0.294-0.132-0.294-0.294v-3.327h-0.259c-0.163 0-0.294-0.132-0.294-0.294s0.132-0.294 0.294-0.294h0.259v-0.177c0-0.163 0.132-0.294 0.294-0.294s0.294 0.132 0.294 0.294v0.177h0.259c0.163 0 0.294 0.132 0.294 0.294s-0.132 0.294-0.294 0.294h-0.259v3.327c0 0.163-0.132 0.294-0.294 0.294zM19.368 13.29h-16.954c-0.163 0-0.294-0.132-0.294-0.294v-2.424c0-0.163 0.132-0.294 0.294-0.294h16.954c0.163 0 0.294 0.132 0.294 0.294v2.424c0 0.163-0.132 0.294-0.294 0.294zM2.708 12.701h16.365v-1.835h-16.365v1.835zM19.368 9.196h-16.954c-0.163 0-0.294-0.132-0.294-0.294s0.132-0.294 0.294-0.294h16.954c0.163 0 0.294 0.132 0.294 0.294s-0.132 0.294-0.294 0.294z"></path>
</symbol>
<symbol id="Freepik-pedal" viewBox="0 0 32 32">
  <title>Freepik-pedal</title>
  <path class="path1" d="M22.854 17.548h-13.709c-0.326 0-0.591 0.265-0.591 0.591v10.906c0 0.326 0.265 0.591 0.591 0.591h13.709c0.326 0 0.591-0.265 0.591-0.591v-10.906c0-0.326-0.265-0.591-0.591-0.591zM22.264 28.455h-12.527v-9.724h12.527v9.724z"></path>
  <path class="path2" d="M20.432 20.697h-8.863c-0.326 0-0.591 0.265-0.591 0.591s0.265 0.591 0.591 0.591h8.863c0.326 0 0.591-0.265 0.591-0.591s-0.265-0.591-0.591-0.591z"></path>
  <path class="path3" d="M20.432 23.001h-8.863c-0.326 0-0.591 0.265-0.591 0.591s0.265 0.591 0.591 0.591h8.863c0.326 0 0.591-0.265 0.591-0.591s-0.265-0.591-0.591-0.591z"></path>
  <path class="path4" d="M20.432 25.306h-8.863c-0.326 0-0.591 0.265-0.591 0.591s0.265 0.591 0.591 0.591h8.863c0.326 0 0.591-0.265 0.591-0.591s-0.265-0.591-0.591-0.591z"></path>
  <path class="path5" style="fill: var(--pedal-border)" d="M27.712 12.014v-3.782c0-0.326-0.265-0.591-0.591-0.591h-1.321c-0.074-0.853-0.672-1.559-1.469-1.793v-5.257c0-0.326-0.265-0.591-0.591-0.591h-15.481c-0.326 0-0.591 0.265-0.591 0.591v5.257c-0.797 0.235-1.395 0.94-1.469 1.793h-1.321c-0.326 0-0.591 0.265-0.591 0.591v3.782c0 0.326 0.265 0.591 0.591 0.591h1.312v0.499h-1.312c-0.326 0-0.591 0.265-0.591 0.591v3.782c0 0.326 0.265 0.591 0.591 0.591h1.312v11.876c0 1.134 0.923 2.057 2.057 2.057h15.503c1.134 0 2.057-0.923 2.057-2.057v-11.876h1.312c0.326 0 0.591-0.265 0.591-0.591v-3.782c0-0.326-0.265-0.591-0.591-0.591h-1.312v-0.499l1.312 0c0.326 0 0.591-0.265 0.591-0.591zM6.191 16.885h-0.721v-2.6h0.721v2.6zM6.191 11.423h-0.721v-2.6h0.721v2.6zM8.851 1.182h14.299v4.583h-14.299v-4.583zM24.627 29.943c0 0.483-0.393 0.875-0.875 0.875h-15.504c-0.483 0-0.875-0.393-0.875-0.875v-22.122c0-0.483 0.393-0.875 0.875-0.875h15.504c0.483 0 0.875 0.393 0.875 0.875v22.122zM25.809 14.285h0.721v2.6h-0.721v-2.6zM26.53 11.423h-0.721v-2.6h0.721v2.6z"></path>
  <path class="path6" d="M10.327 8.561c-1.224 0-2.219 0.995-2.219 2.219s0.995 2.219 2.219 2.219c1.224 0 2.219-0.995 2.219-2.219s-0.995-2.219-2.219-2.219zM10.327 11.818c-0.572 0-1.037-0.465-1.037-1.037s0.465-1.037 1.037-1.037c0.572 0 1.037 0.465 1.037 1.037s-0.465 1.037-1.037 1.037z"></path>
  <path class="path7" d="M16 8.561c-1.224 0-2.219 0.995-2.219 2.219s0.995 2.219 2.219 2.219c1.224 0 2.219-0.995 2.219-2.219s-0.996-2.219-2.219-2.219zM16 11.818c-0.572 0-1.037-0.465-1.037-1.037s0.465-1.037 1.037-1.037c0.572 0 1.037 0.465 1.037 1.037s-0.465 1.037-1.037 1.037z"></path>
  <path class="path8" d="M21.673 8.561c-1.224 0-2.219 0.995-2.219 2.219s0.996 2.219 2.219 2.219 2.219-0.995 2.219-2.219c0-1.224-0.996-2.219-2.219-2.219zM21.673 11.818c-0.572 0-1.037-0.465-1.037-1.037s0.465-1.037 1.037-1.037 1.037 0.465 1.037 1.037c0 0.572-0.465 1.037-1.037 1.037z"></path>
  <path class="path9" d="M13.137 2.016h-2.626c-0.326 0-0.591 0.265-0.591 0.591s0.265 0.591 0.591 0.591h2.626c0.326 0 0.591-0.265 0.591-0.591s-0.265-0.591-0.591-0.591z"></path>
  <path class="path10" d="M13.137 3.749h-2.626c-0.326 0-0.591 0.265-0.591 0.591s0.265 0.591 0.591 0.591h2.626c0.326 0 0.591-0.265 0.591-0.591s-0.265-0.591-0.591-0.591z"></path>
  <path class="path11" d="M21.489 2.016h-2.626c-0.326 0-0.591 0.265-0.591 0.591s0.265 0.591 0.591 0.591h2.626c0.326 0 0.591-0.265 0.591-0.591s-0.265-0.591-0.591-0.591z"></path>
  <path class="path12" d="M21.489 3.749h-2.626c-0.326 0-0.591 0.265-0.591 0.591s0.265 0.591 0.591 0.591h2.626c0.326 0 0.591-0.265 0.591-0.591s-0.265-0.591-0.591-0.591z"></path>
</symbol>
  <symbol id="Humphries-guitar-pedal-2" viewBox="0 0 32 32">
  <title>Humphries-guitar-pedal-2</title>
  <path class="path1" d="M23.25 8.5c1.435 0 2.611-1.098 2.738-2.5h-2.738c-0.138 0-0.25-0.112-0.25-0.25s0.112-0.25 0.25-0.25h2.738c-0.127-1.402-1.303-2.5-2.738-2.5-1.519 0-2.75 1.231-2.75 2.75s1.231 2.75 2.75 2.75v0zM8.75 8.5c1.519 0 2.75-1.231 2.75-2.75 0-1.435-1.098-2.611-2.5-2.738v2.738c0 0.138-0.112 0.25-0.25 0.25s-0.25-0.112-0.25-0.25v-2.738c-1.402 0.127-2.5 1.303-2.5 2.738 0 1.519 1.231 2.75 2.75 2.75v0zM26.5 21h-21c-0.276 0-0.5 0.224-0.5 0.5s0.224 0.5 0.5 0.5h21c0.276 0 0.5-0.224 0.5-0.5s-0.224-0.5-0.5-0.5v0zM15.75 6.5c0.414 0 0.75-0.336 0.75-0.75s-0.336-0.75-0.75-0.75-0.75 0.336-0.75 0.75c0 0.414 0.336 0.75 0.75 0.75v0zM15.75 15.5c1.519 0 2.75-1.231 2.75-2.75 0-1.435-1.098-2.611-2.5-2.738v2.738c0 0.138-0.112 0.25-0.25 0.25s-0.25-0.112-0.25-0.25v-2.738c-1.402 0.127-2.5 1.303-2.5 2.738 0 1.519 1.231 2.75 2.75 2.75v0zM16 28.5c-1.103 0-2-0.897-2-2s0.897-2 2-2c1.103 0 2 0.897 2 2s-0.897 2-2 2v0zM16 24c-1.381 0-2.5 1.119-2.5 2.5s1.119 2.5 2.5 2.5 2.5-1.119 2.5-2.5c0-1.38-1.12-2.5-2.5-2.5v0zM16 25c-0.829 0-1.5 0.672-1.5 1.5s0.672 1.5 1.5 1.5 1.5-0.672 1.5-1.5c-0-0.829-0.672-1.5-1.5-1.5v0zM28 29.5c0 0.827-0.673 1.5-1.5 1.5h-21c-0.827 0-1.5-0.673-1.5-1.5v-27c0-0.827 0.673-1.5 1.5-1.5h21c0.827 0 1.5 0.673 1.5 1.5v27zM26.5 0h-21c-1.375 0-2.5 1.125-2.5 2.5v27c0 1.375 1.125 2.5 2.5 2.5h21c1.375 0 2.5-1.125 2.5-2.5v-27c0-1.375-1.125-2.5-2.5-2.5v0z"></path>
</symbol>
<symbol id="Freepik-equalizer-bars" viewBox="0 0 32 32">
  <title>Freepik-equalizer-bars</title>
  <path class="path1" d="M15.495 27.077h-2.422c-0.161 0-0.292-0.131-0.292-0.292v-10.493h-0.692v6.019c0 0.161-0.131 0.292-0.292 0.292h-2.422c-0.161 0-0.292-0.131-0.292-0.292v-6.019h-0.692v4.422c0 0.161-0.131 0.292-0.292 0.292h-2.422c-0.161 0-0.292-0.131-0.292-0.292v-4.422h-0.692v1.687c0 0.161-0.131 0.292-0.292 0.292h-2.422c-0.161 0-0.292-0.131-0.292-0.292v-1.687h-1.396c-0.161 0-0.292-0.131-0.292-0.292s0.131-0.292 0.292-0.292h1.396v-1.687c0-0.161 0.131-0.292 0.292-0.292h2.422c0.161 0 0.292 0.131 0.292 0.292v1.687h0.692v-4.422c0-0.161 0.131-0.292 0.292-0.292h2.422c0.161 0 0.292 0.131 0.292 0.292v4.422h0.692v-6.019c0-0.161 0.131-0.292 0.292-0.292h2.422c0.161 0 0.292 0.131 0.292 0.292v6.019h0.692v-10.493c0-0.161 0.131-0.292 0.292-0.292h2.422c0.161 0 0.292 0.131 0.292 0.292v10.493h0.692v-3.543c0-0.161 0.131-0.292 0.292-0.292h2.422c0.161 0 0.292 0.131 0.292 0.292v3.543h0.692v-7.617c0-0.161 0.131-0.292 0.292-0.292h2.422c0.161 0 0.292 0.131 0.292 0.292v7.617h0.692v-4.422c0-0.161 0.131-0.292 0.292-0.292h2.422c0.161 0 0.292 0.131 0.292 0.292v4.422h0.692v-0.667c0-0.161 0.131-0.292 0.292-0.292h2.422c0.161 0 0.292 0.131 0.292 0.292v0.667h1.131c0.161 0 0.292 0.131 0.292 0.292s-0.131 0.292-0.292 0.292h-1.131v0.667c0 0.161-0.131 0.292-0.292 0.292h-2.422c-0.161 0-0.292-0.131-0.292-0.292v-0.667h-0.692v4.422c0 0.161-0.131 0.292-0.292 0.292h-2.422c-0.161 0-0.292-0.131-0.292-0.292v-4.422h-0.692v7.617c0 0.161-0.131 0.292-0.292 0.292h-2.422c-0.161 0-0.292-0.131-0.292-0.292v-7.617h-0.692v3.543c0 0.161-0.131 0.292-0.292 0.292h-2.422c-0.161 0-0.292-0.131-0.292-0.292v-3.543h-0.692v10.493c-0 0.161-0.131 0.292-0.292 0.292zM13.365 26.493h1.838v-0.798h-1.838v0.798zM13.365 25.112h1.838v-8.82h-1.838v8.82zM20.76 23.617h1.838v-7.325h-1.838v7.325zM9.667 22.019h1.838v-5.727h-1.838v5.727zM24.457 20.422h1.838v-4.13h-1.838v4.13zM5.969 20.422h1.838v-4.13h-1.838v4.13zM17.062 19.543h1.838v-3.251h-1.838v3.251zM2.272 17.687h1.838v-1.395h-1.838v1.395zM28.155 16.667h1.838v-0.375h-1.838v0.375zM28.155 15.708h1.838v-0.375h-1.838v0.375zM24.457 15.708h1.838v-4.13h-1.838v4.13zM20.76 15.708h1.838v-7.325h-1.838v7.325zM17.062 15.708h1.838v-3.251h-1.838v3.251zM13.365 15.708h1.838v-8.943h-1.838v8.943zM9.667 15.708h1.838v-5.727h-1.838v5.727zM5.969 15.708h1.838v-4.13h-1.838v4.13zM2.272 15.708h1.838v-1.395h-1.838v1.395zM13.365 6.182h1.838v-0.675h-1.838v0.675z"></path>
</symbol>
</defs>
</svg>
