<svg style="position: absolute; width: 0; height: 0;" width="0" height="0" version="1.1" xmlns="http://www.w3.org/2000/svg" xmlns:xlink="http://www.w3.org/1999/xlink">
<defs>
<symbol id="icon-raspberry" viewBox="0 0 25 32">
<title>raspberry</title>
<path fill="#000" class="path1 fill-color1" d="M7.040 0.076c-0.16 0-0.333 0.062-0.533 0.222-0.48-0.196-0.951-0.253-1.364 0.12-0.644-0.089-0.853 0.089-1.013 0.289-0.178 0-1.067-0.178-1.511 0.444-1.067-0.133-1.378 0.622-1.022 1.333-0.222 0.311-0.444 0.667 0.044 1.289-0.178 0.356-0.089 0.711 0.356 1.2-0.089 0.489 0.133 0.844 0.489 1.111-0.089 0.667 0.622 1.067 0.844 1.2 0.089 0.4 0.222 0.756 1.022 0.978 0.133 0.578 0.622 0.667 1.067 0.8-1.556 0.889-2.889 2.089-2.844 4.978l-0.222 0.4c-1.778 1.067-3.378 4.489-0.889 7.289 0.133 0.889 0.4 1.511 0.667 2.222 0.356 2.8 2.711 4.089 3.333 4.267 0.889 0.667 1.867 1.333 3.2 1.822 1.244 1.244 2.578 1.733 3.911 1.733h0.062c1.351 0 2.693-0.489 3.933-1.769 1.302-0.462 2.267-1.111 3.2-1.822 0.622-0.151 2.978-1.467 3.333-4.267 0.236-0.698 0.507-1.333 0.667-2.204 2.462-2.8 0.889-6.258-0.889-7.333l-0.222-0.4c0.013-2.889-1.307-4.044-2.844-4.933 0.467-0.133 0.947-0.222 1.080-0.836 0.8-0.222 0.951-0.578 1.031-0.978 0.2-0.178 0.898-0.533 0.827-1.244 0.4-0.267 0.622-0.622 0.511-1.147 0.427-0.462 0.533-0.844 0.356-1.2 0.533-0.578 0.311-0.902 0.089-1.244 0.4-0.667 0.089-1.422-0.978-1.289-0.413-0.622-1.333-0.489-1.476-0.489-0.164-0.196-0.373-0.369-1.022-0.284-0.378-0.356-0.844-0.28-1.333-0.102-0.569-0.444-0.947-0.089-1.378 0.044-0.693-0.222-0.853 0.089-1.191 0.209-0.747-0.142-0.978 0.2-1.333 0.569h-0.4c-1.124 0.667-1.689 2-1.88 2.711-0.209-0.711-0.773-2.089-1.911-2.756h-0.404c-0.356-0.311-0.578-0.667-1.333-0.502-0.342-0.133-0.502-0.4-1.2-0.178-0.28-0.089-0.533-0.267-0.844-0.267z"></path>
<path fill="#75a928" class="path2 fill-color3" d="M4.773 3.022c3.022 1.556 4.773 2.818 5.733 3.893-0.489 1.973-3.058 2.062-4 2.009 0.196-0.089 0.356-0.2 0.413-0.364-0.236-0.164-1.067-0.018-1.658-0.347 0.222-0.044 0.329-0.089 0.436-0.253-0.551-0.178-1.147-0.311-1.493-0.622 0.187 0.044 0.364 0.044 0.609-0.089-0.489-0.267-1.022-0.489-1.431-0.889 0.267 0 0.533 0 0.622-0.089-0.444-0.267-0.844-0.578-1.156-0.933 0.356 0.044 0.533 0 0.622-0.044-0.311-0.356-0.756-0.622-0.978-1.067 0.267 0.089 0.533 0.133 0.711 0-0.089-0.267-0.622-0.4-0.889-1.022 0.311 0.044 0.578 0.044 0.667 0-0.133-0.533-0.356-0.844-0.578-1.111 0.622 0 1.511 0 1.467-0.044l-0.4-0.356c0.578-0.133 1.2 0.044 1.6 0.178 0.222-0.142 0-0.356-0.222-0.533 0.489 0.062 0.978 0.178 1.378 0.333 0.209-0.2-0.147-0.4-0.311-0.591 0.756 0.156 1.084 0.356 1.404 0.564 0.236-0.222 0.013-0.422-0.142-0.622 0.467 0.089 0.778 0.356 1.089 0.622 0.111-0.133 0.267-0.24 0.080-0.587 0.409 0.231 0.72 0.498 0.942 0.809 0.253-0.16 0.151-0.382 0.151-0.587 0.427 0.347 0.698 0.711 1.031 1.076 0.067-0.044 0.124-0.213 0.178-0.471 1.022 0.987 2.453 3.467 0.369 4.458-1.778-1.467-3.911-2.533-6.267-3.333zM20.8 3.022c-3.022 1.556-4.778 2.818-5.742 3.893 0.489 1.973 3.067 2.062 4 2.009-0.191-0.089-0.356-0.2-0.4-0.364 0.231-0.164 1.067-0.018 1.644-0.347-0.222-0.044-0.324-0.089-0.431-0.253 0.578-0.178 1.156-0.311 1.511-0.622-0.178 0.044-0.356 0.044-0.622-0.089 0.489-0.267 1.022-0.489 1.467-0.889-0.222 0-0.533 0-0.578-0.089 0.444-0.267 0.844-0.578 1.156-0.933-0.356 0.044-0.489 0-0.578-0.044 0.356-0.356 0.8-0.622 0.978-1.067-0.267 0.089-0.489 0.133-0.667 0 0.133-0.267 0.622-0.4 0.933-1.022-0.276 0.044-0.578 0.044-0.631 0 0.133-0.533 0.356-0.844 0.578-1.111-0.6 0-1.511 0-1.467-0.044l0.356-0.356c-0.578-0.133-1.187 0.044-1.622 0.178-0.191-0.133 0-0.356 0.244-0.533-0.507 0.071-0.956 0.178-1.36 0.342-0.222-0.178 0.133-0.378 0.311-0.578-0.764 0.133-1.093 0.356-1.422 0.56-0.222-0.222 0-0.418 0.151-0.622-0.578 0.209-0.889 0.489-1.2 0.756-0.102-0.147-0.267-0.249-0.067-0.596-0.431 0.222-0.738 0.502-0.978 0.813-0.244-0.178-0.133-0.4-0.133-0.578-0.431 0.324-0.711 0.711-1.022 1.067-0.089-0.044-0.133-0.222-0.178-0.489-1.022 0.978-2.444 3.467-0.356 4.444 1.778-1.467 3.911-2.533 6.24-3.333z"></path>
<path fill="#bc1142" class="path3 fill-color2" d="M16.444 23.129c0 1.841-1.62 3.333-3.618 3.333s-3.618-1.492-3.618-3.333c-0.001-0.035-0.002-0.076-0.002-0.117 0-1.841 1.62-3.333 3.618-3.333s3.618 1.492 3.618 3.333c0 0.041-0.001 0.082-0.002 0.123zM10.733 13.6c0.009 0.006 0.019 0.013 0.030 0.020 1.488 1.004 1.736 3.238 0.553 4.991-1.174 1.741-3.317 2.352-4.803 1.377-0.010-0.007-0.021-0.014-0.031-0.021-1.488-1.004-1.736-3.238-0.553-4.991 1.174-1.741 3.317-2.352 4.803-1.377z"></path>
<path fill="#bc1142" class="path4 fill-color2" d="M14.778 13.422c1.488-0.975 3.631-0.364 4.805 1.376 1.182 1.753 0.935 3.987-0.553 4.991-0.010 0.007-0.021 0.014-0.031 0.021-1.487 0.974-3.629 0.363-4.803-1.377-1.182-1.753-0.935-3.987 0.553-4.991 0.010-0.007 0.021-0.014 0.031-0.021zM3.244 15.2c1.613-0.431 0.542 6.698-0.773 6.116-1.449-1.169-1.911-4.578 0.773-6.116z"></path>
<path fill="#bc1142" class="path5 fill-color2" d="M21.942 15.111c-1.618-0.431-0.547 6.698 0.769 6.116 1.449-1.164 1.911-4.578-0.769-6.111zM16.444 9.809c2.791-0.476 5.111 1.187 5.022 4.213-0.089 1.156-6.053-4.044-5.022-4.213zM8.729 9.72c-2.8-0.476-5.12 1.187-5.022 4.213 0.089 1.156 6.044-4.044 5.022-4.222zM12.738 9.009c-1.667-0.044-3.267 1.244-3.271 1.982 0 0.902 1.32 1.822 3.289 1.849 2 0 3.28-0.756 3.289-1.689 0-1.067-1.822-2.178-3.307-2.178zM12.844 27.511c1.449-0.058 3.4 0.476 3.404 1.178 0.022 0.684-1.769 2.231-3.511 2.204-1.791 0.089-3.556-1.467-3.529-2-0.027-0.8 2.187-1.378 3.631-1.378zM7.467 23.333c1.040 1.244 1.511 3.44 0.649 4.089-0.818 0.489-2.8 0.289-4.209-1.733-0.978-1.707-0.844-3.436-0.178-3.942 0.978-0.609 2.533 0.213 3.733 1.591zM18 22.942c-1.12 1.311-1.742 3.702-0.924 4.471 0.778 0.6 2.876 0.516 4.422-1.631 1.124-1.422 0.756-3.822 0.107-4.489-0.933-0.711-2.311 0.222-3.6 1.689z"></path>
</symbol>
<symbol id="icon-conection-plug" viewBox="0 0 32 32">
<title>conection-plug</title>
<path class="path1" d="M19.308 40.988c-4.697 4.065-12.421 2.936-15.898-1.129-3.387-3.952-3.387-11.743 1.129-15.808l1.129-0.858-1.807-2.078c-0.226-0.226-0.158-0.632 0.090-0.858l13.482-11.743c0.226-0.181 0.632-0.158 0.858 0.090l0.677 0.903 7.227-6.346c-0.113-0.135-0.158-0.339-0.090-0.519 0.113-0.181 0.294-0.339 0.452-0.384l4.336-0.903c0.226-0.068 0.452 0 0.587 0.158 0.113 0.181 0.158 0.407 0.090 0.61l-1.536 4.133c-0.068 0.226-0.226 0.339-0.452 0.384s-0.384 0-0.542-0.158l-7.272 6.323 0.677 0.813c0.226 0.226 0.226 0.632-0.045 0.858l-13.482 11.743c-0.226 0.226-0.632 0.226-0.858 0l-1.761-2.032-1.129 0.903c-4.2 3.613-4.652 9.937-0.903 14.137 3.636 4.133 9.959 4.584 14.092 0.971 5.239-3.5 0.723 0.903 0.723 0.903zM8.582 24.841l12.579-10.908-3.546-4.11-12.646 10.953 1.716 1.965c0.045 0 0.068 0.045 0.090 0.068l0.068 0.090zM27.709 3.094l1.536 1.739 0.745-2.191zM27.325 6.368l0.903-0.813-1.355-1.581-0.903 0.79zM22.854 10.253l3.568-3.094-1.4-1.581-3.568 3.049zM21.002 11.879l0.903-0.813-1.355-1.649-0.948 0.858z"></path>
</symbol>
<symbol id="icon-configurations" viewBox="0 0 32 32">
<title>configurations</title>
<path class="path1" d="M30.238 3.87h-28.475c-0.968 0-1.762 0.788-1.762 1.762v20.734c0 0.968 0.788 1.762 1.762 1.762h28.475c0.968 0 1.762-0.788 1.762-1.762v-20.734c0-0.968-0.788-1.762-1.762-1.762zM30.963 26.367c0 0.401-0.325 0.726-0.726 0.726h-28.475c-0.401 0-0.726-0.325-0.726-0.726v-20.734c0-0.401 0.325-0.726 0.726-0.726h28.475c0.401 0 0.726 0.325 0.726 0.726v20.734z"></path>
<path class="path2" d="M12.13 14.376c-0.276 0-0.518 0.235-0.518 0.518v9.4c0 0.276 0.235 0.518 0.518 0.518s0.518-0.235 0.518-0.518v-9.4c0-0.276-0.235-0.518-0.518-0.518zM14.307 11.577c0-0.899-0.726-1.624-1.624-1.624h-0.035v-2.246c0-0.276-0.235-0.518-0.518-0.518s-0.518 0.235-0.518 0.518v2.246h-0.035c-0.899 0-1.624 0.726-1.624 1.624s0.726 1.624 1.624 1.624h1.106c0.899 0 1.624-0.726 1.624-1.624zM12.682 12.164h-1.106c-0.325 0-0.587-0.263-0.587-0.587s0.263-0.587 0.587-0.587h1.106c0.325 0 0.587 0.263 0.587 0.587s-0.263 0.587-0.587 0.587zM19.87 13.27c-0.276 0-0.518 0.235-0.518 0.518v10.505c0 0.276 0.235 0.518 0.518 0.518s0.518-0.235 0.518-0.518v-10.505c0-0.276-0.235-0.518-0.518-0.518zM22.048 9.918c0-0.899-0.726-1.624-1.624-1.624h-0.035v-0.587c0-0.276-0.235-0.518-0.518-0.518s-0.518 0.235-0.518 0.518v0.587h-0.035c-0.898 0-1.624 0.726-1.624 1.624s0.726 1.624 1.624 1.624h1.106c0.898 0 1.624-0.726 1.624-1.624zM20.423 10.505h-1.106c-0.325 0-0.587-0.263-0.587-0.587s0.263-0.587 0.587-0.587h1.106c0.325 0 0.587 0.263 0.587 0.587s-0.263 0.587-0.587 0.587zM4.389 13.27c-0.276 0-0.518 0.235-0.518 0.518v10.505c0 0.276 0.235 0.518 0.518 0.518s0.518-0.235 0.518-0.518v-10.505c0-0.276-0.235-0.518-0.518-0.518zM6.566 10.471c0-0.899-0.726-1.624-1.624-1.624h-0.035v-1.14c0-0.276-0.235-0.518-0.518-0.518s-0.518 0.235-0.518 0.518v1.14h-0.035c-0.898 0-1.624 0.726-1.624 1.624s0.726 1.624 1.624 1.624h1.106c0.899 0 1.624-0.726 1.624-1.624zM4.942 11.058h-1.106c-0.325 0-0.587-0.263-0.587-0.587s0.263-0.587 0.587-0.587h1.106c0.325 0 0.587 0.263 0.587 0.587s-0.263 0.587-0.587 0.587zM16 23.222c-0.276 0-0.518 0.235-0.518 0.518v0.553c0 0.276 0.235 0.518 0.518 0.518s0.518-0.235 0.518-0.518v-0.553c0-0.276-0.235-0.518-0.518-0.518zM16.553 18.799h-0.035v-11.093c0-0.276-0.235-0.518-0.518-0.518s-0.518 0.235-0.518 0.518v11.093h-0.035c-0.899 0-1.624 0.726-1.624 1.624s0.726 1.624 1.624 1.624h1.106c0.898 0 1.624-0.726 1.624-1.624s-0.726-1.624-1.624-1.624zM16.553 21.011h-1.106c-0.325 0-0.587-0.263-0.587-0.587s0.263-0.587 0.587-0.587h1.106c0.325 0 0.587 0.263 0.587 0.587s-0.263 0.587-0.587 0.587zM27.611 16.035c-0.276 0-0.518 0.235-0.518 0.518v7.741c0 0.276 0.235 0.518 0.518 0.518s0.518-0.235 0.518-0.518v-7.741c0-0.276-0.235-0.518-0.518-0.518zM28.164 11.611h-0.035v-3.905c0-0.276-0.235-0.518-0.518-0.518s-0.518 0.235-0.518 0.518v3.905h-0.035c-0.898 0-1.624 0.726-1.624 1.624s0.726 1.624 1.624 1.624h1.106c0.898 0 1.624-0.726 1.624-1.624s-0.726-1.624-1.624-1.624zM28.164 13.823h-1.106c-0.325 0-0.587-0.263-0.587-0.587s0.263-0.587 0.587-0.587h1.106c0.325 0 0.587 0.263 0.587 0.587s-0.263 0.587-0.587 0.587zM23.741 22.117c-0.276 0-0.518 0.235-0.518 0.518v1.659c0 0.276 0.235 0.518 0.518 0.518s0.518-0.235 0.518-0.518v-1.659c0-0.276-0.235-0.518-0.518-0.518zM24.294 17.693h-0.035v-9.987c0-0.276-0.235-0.518-0.518-0.518s-0.518 0.235-0.518 0.518v9.987h-0.035c-0.898 0-1.624 0.726-1.624 1.624s0.726 1.624 1.624 1.624h1.106c0.898 0 1.624-0.726 1.624-1.624s-0.726-1.624-1.624-1.624zM24.294 19.905h-1.106c-0.325 0-0.587-0.263-0.587-0.587s0.263-0.587 0.587-0.587h1.106c0.325 0 0.587 0.263 0.587 0.587s-0.263 0.587-0.587 0.587zM8.259 20.458c-0.276 0-0.518 0.235-0.518 0.518v3.317c0 0.276 0.235 0.518 0.518 0.518s0.518-0.235 0.518-0.518v-3.317c0-0.276-0.235-0.518-0.518-0.518zM8.812 16.035h-0.035v-8.328c0-0.276-0.235-0.518-0.518-0.518s-0.518 0.235-0.518 0.518v8.328h-0.035c-0.899 0-1.624 0.726-1.624 1.624s0.726 1.624 1.624 1.624h1.106c0.899 0 1.624-0.726 1.624-1.624s-0.726-1.624-1.624-1.624zM8.812 18.246h-1.106c-0.325 0-0.587-0.263-0.587-0.587s0.263-0.587 0.587-0.587h1.106c0.325 0 0.587 0.263 0.587 0.587s-0.263 0.587-0.587 0.587z"></path>
</symbol>
<symbol id="icon-folders" viewBox="0 0 32 32">
<title>folders</title>
<path class="path1" d="M0.651 4.429c0.358 0 0.651-0.293 0.651-0.651 0-1.010 0.814-1.824 1.824-1.824h5.829l4.581 4.993c0.109 0.152 0.293 0.217 0.478 0.217h14.871c1.042 0 1.845 0.825 1.845 1.845 0 0.347 0.304 0.651 0.651 0.651s0.651-0.304 0.651-0.651c0-1.737-1.411-3.148-3.104-3.148h-14.6l-4.613-4.993c-0.109-0.141-0.293-0.217-0.478-0.217h-6.090c-1.758 0-3.148 1.411-3.148 3.126 0 0.358 0.293 0.651 0.651 0.651z"></path>
<path class="path2" d="M28.874 10.204h-14.545l-4.613-4.993c-0.109-0.141-0.293-0.217-0.478-0.217h-6.090c-1.758 0-3.148 1.411-3.148 3.126v12.874c0 0.358 0.293 0.651 0.651 0.651s0.651-0.293 0.651-0.651v-12.874c0-1.010 0.814-1.824 1.824-1.824h5.829l4.581 5.015c0.109 0.13 0.293 0.217 0.478 0.217h14.871c1.042 0 1.845 0.803 1.845 1.813v14.871c0 0.977-0.803 1.845-1.802 1.845h-25.78c-1.010 0-1.824-0.868-1.824-1.845 0-0.38-0.293-0.651-0.651-0.651s-0.651 0.271-0.651 0.651c0 1.737 1.411 3.148 3.126 3.148h25.726c1.737 0 3.126-1.411 3.126-3.148v-14.86c0-1.737-1.411-3.148-3.115-3.148z"></path>
</symbol>
<symbol id="icon-local-folder" viewBox="0 0 32 32">
<title>local-folder</title>
<path class="path1" d="M29.823 5.529h-8.066l-2.087-2.26c-0.622-0.67-1.5-1.057-2.419-1.057h-15.067c-1.216 0-2.184 0.968-2.184 2.177v23.222c0 1.209 0.968 2.177 2.177 2.177h27.646c1.203 0 2.177-0.968 2.177-2.177v-19.905c0-1.21-0.968-2.177-2.177-2.177zM18.903 3.974l1.451 1.555h-1.914l-2.108-2.281h0.926c0.622 0 1.223 0.263 1.659 0.726zM13.947 3.248c0.622 0 1.223 0.263 1.659 0.726l1.417 1.555h-2.163l-2.073-2.26c-0.014 0-0.021-0.014-0.028-0.021h1.175zM2.177 3.248h8.19c0.622 0 1.223 0.263 1.659 0.726l1.424 1.555h-11.266c-0.415 0-0.816 0.117-1.147 0.325v-1.465c0-0.622 0.511-1.14 1.14-1.14zM30.963 27.611c0 0.622-0.511 1.14-1.14 1.14h-27.646c-0.622 0-1.14-0.511-1.14-1.14v-19.905c0-0.622 0.511-1.14 1.14-1.14h27.646c0.622 0 1.14 0.511 1.14 1.14v19.905z"></path>
<path class="path2" d="M27.611 8.847h-7.741c-0.587 0-1.071 0.484-1.071 1.071v5.529c0 0.587 0.484 1.071 1.071 1.071h7.741c0.587 0 1.071-0.484 1.071-1.071v-5.529c0-0.587-0.484-1.071-1.071-1.071zM27.646 15.447c0 0.021-0.014 0.035-0.035 0.035h-7.741c-0.021 0-0.035-0.014-0.035-0.035v-5.529c0-0.021 0.014-0.035 0.035-0.035h7.741c0.021 0 0.035 0.014 0.035 0.035v5.529z"></path>
<path class="path3" d="M25.952 11.058h-4.423c-0.276 0-0.518 0.235-0.518 0.518s0.235 0.518 0.518 0.518h4.423c0.276 0 0.518-0.235 0.518-0.518s-0.235-0.518-0.518-0.518zM25.952 13.27h-4.423c-0.276 0-0.518 0.235-0.518 0.518s0.235 0.518 0.518 0.518h4.423c0.276 0 0.518-0.235 0.518-0.518s-0.235-0.518-0.518-0.518z"></path>
</symbol>
<symbol id="icon-patch" viewBox="0 0 32 32">
<title>patch</title>
<path class="path1" d="M22.235 0h-16.095c-1.088 0-1.958 0.884-1.958 1.972v28.063c0 1.088 0.884 1.972 1.958 1.972h19.72c1.088 0 1.972-0.884 1.972-1.972v-23.969l-5.576-6.065zM22.711 2.938l2.448 2.652h-2.448v-2.652zM26.179 30.035c0 0.177-0.136 0.32-0.32 0.32h-19.72c-0.177 0-0.32-0.136-0.32-0.32v-28.063c0-0.184 0.136-0.326 0.313-0.326h14.919v4.773c0 0.456 0.374 0.816 0.83 0.816h4.297v22.8zM8.731 8.772h13.98c0.354 0 0.626 0.272 0.626 0.612s-0.272 0.612-0.612 0.612h-14.008c-0.34 0-0.612-0.272-0.612-0.612s0.272-0.612 0.612-0.612zM23.337 13.532c0 0.34-0.272 0.612-0.612 0.612h-14.008c-0.34 0-0.612-0.272-0.612-0.612s0.272-0.612 0.612-0.612h13.994c0.354 0 0.626 0.272 0.626 0.612zM23.337 17.544c0 0.34-0.272 0.612-0.612 0.612h-14.008c-0.34 0-0.612-0.272-0.612-0.612s0.272-0.612 0.612-0.612h13.994c0.354 0 0.626 0.272 0.626 0.612zM23.337 21.623c0 0.34-0.272 0.612-0.612 0.612h-14.008c-0.34 0-0.612-0.272-0.612-0.612s0.272-0.612 0.612-0.612h13.994c0.354 0 0.626 0.272 0.626 0.612z"></path>
</symbol>
</defs>
</svg>
