<svg xmlns="http://www.w3.org/2000/svg" viewBox="0 0 141.7 141.7">
  <path fill="#333" d="M85.5 181.5c-20.8 18-55 13-70.4-5-15-17.5-15-52 5-70l5-3.8-8-9.2c-1-1-.7-2.8.4-3.8l59.7-52c1-.8 2.8-.7 3.8.4l3 4L116 14c-.5-.6-.7-1.5-.4-2.3.5-.8 1.3-1.5 2-1.7l19.2-4c1-.3 2 0 2.6.7.5.8.7 1.8.4 2.7L133 27.7c-.3 1-1 1.5-2 1.7-1 .2-1.7 0-2.4-.7l-32.2 28 3 3.6c1 1 1 2.8-.2 3.8l-59.7 52c-1 1-2.8 1-3.8 0l-7.8-9-5 4c-18.6 16-20.6 44-4 62.6C35 192 63 194 81.3 178c23.2-15.5 3.2 4 3.2 4zM38 110l55.7-48.3L78 43.5 22 92l7.6 8.7c.2 0 .3.2.4.3l.3.4zm84.7-96.3l6.8 7.7 3.3-9.7zM121 28.2l4-3.6-6-7-4 3.5zm-19.8 17.2L117 31.7l-6.2-7L95 38.2zM93 52.6l4-3.6-6-7.3-4.2 3.8z"/>
</svg>
