<svg xmlns="http://www.w3.org/2000/svg" viewBox="0 0 463 463">
  <path d="M437.5 56h-412C11.5 56 0 67.4 0 81.5v300c0 14 11.4 25.5 25.5 25.5h412c14 0 25.5-11.4 25.5-25.5v-300c0-14-11.4-25.5-25.5-25.5zM448 381.5c0 5.8-4.7 10.5-10.5 10.5h-412c-5.8 0-10.5-4.7-10.5-10.5v-300C15 75.7 19.7 71 25.5 71h412c5.8 0 10.5 4.7 10.5 10.5v300z"/>
  <path d="M175.5 208c-4 0-7.5 3.4-7.5 7.5v136c0 4 3.4 7.5 7.5 7.5s7.5-3.4 7.5-7.5v-136c0-4-3.4-7.5-7.5-7.5zm31.5-40.5c0-13-10.5-23.5-23.5-23.5h-.5v-32.5c0-4-3.4-7.5-7.5-7.5s-7.5 3.4-7.5 7.5V144h-.5c-13 0-23.5 10.5-23.5 23.5s10.5 23.5 23.5 23.5h16c13 0 23.5-10.5 23.5-23.5zm-23.5 8.5h-16c-4.7 0-8.5-3.8-8.5-8.5s3.8-8.5 8.5-8.5h16c4.7 0 8.5 3.8 8.5 8.5s-3.8 8.5-8.5 8.5zm104 16c-4 0-7.5 3.4-7.5 7.5v152c0 4 3.4 7.5 7.5 7.5s7.5-3.4 7.5-7.5v-152c0-4-3.4-7.5-7.5-7.5zm31.5-48.5c0-13-10.5-23.5-23.5-23.5h-.5v-8.5c0-4-3.4-7.5-7.5-7.5s-7.5 3.4-7.5 7.5v8.5h-.5c-13 0-23.5 10.5-23.5 23.5s10.5 23.5 23.5 23.5h16c13 0 23.5-10.5 23.5-23.5zm-23.5 8.5h-16c-4.7 0-8.5-3.8-8.5-8.5s3.8-8.5 8.5-8.5h16c4.7 0 8.5 3.8 8.5 8.5s-3.8 8.5-8.5 8.5zm-232 40c-4 0-7.5 3.4-7.5 7.5v152c0 4 3.4 7.5 7.5 7.5s7.5-3.4 7.5-7.5v-152c0-4-3.4-7.5-7.5-7.5zM95 151.5c0-13-10.5-23.5-23.5-23.5H71v-16.5c0-4-3.4-7.5-7.5-7.5s-7.5 3.4-7.5 7.5V128h-.5c-13 0-23.5 10.5-23.5 23.5S42.5 175 55.5 175h16c13 0 23.5-10.5 23.5-23.5zM71.5 160h-16c-4.7 0-8.5-3.8-8.5-8.5s3.8-8.5 8.5-8.5h16c4.7 0 8.5 3.8 8.5 8.5s-3.8 8.5-8.5 8.5zm160 176c-4 0-7.5 3.4-7.5 7.5v8c0 4 3.4 7.5 7.5 7.5s7.5-3.4 7.5-7.5v-8c0-4-3.4-7.5-7.5-7.5zm8-64h-.5V111.5c0-4-3.4-7.5-7.5-7.5s-7.5 3.4-7.5 7.5V272h-.5c-13 0-23.5 10.5-23.5 23.5s10.5 23.5 23.5 23.5h16c13 0 23.5-10.5 23.5-23.5S252.5 272 239.5 272zm0 32h-16c-4.7 0-8.5-3.8-8.5-8.5s3.8-8.5 8.5-8.5h16c4.7 0 8.5 3.8 8.5 8.5s-3.8 8.5-8.5 8.5zm160-72c-4 0-7.5 3.4-7.5 7.5v112c0 4 3.4 7.5 7.5 7.5s7.5-3.4 7.5-7.5v-112c0-4-3.4-7.5-7.5-7.5zm8-64h-.5v-56.5c0-4-3.4-7.5-7.5-7.5s-7.5 3.4-7.5 7.5V168h-.5c-13 0-23.5 10.5-23.5 23.5s10.5 23.5 23.5 23.5h16c13 0 23.5-10.5 23.5-23.5S420.5 168 407.5 168zm0 32h-16c-4.7 0-8.5-3.8-8.5-8.5s3.8-8.5 8.5-8.5h16c4.7 0 8.5 3.8 8.5 8.5s-3.8 8.5-8.5 8.5zm-64 120c-4 0-7.5 3.4-7.5 7.5v24c0 4 3.4 7.5 7.5 7.5s7.5-3.4 7.5-7.5v-24c0-4-3.4-7.5-7.5-7.5zm8-64h-.5V111.5c0-4-3.4-7.5-7.5-7.5s-7.5 3.4-7.5 7.5V256h-.5c-13 0-23.5 10.5-23.5 23.5s10.5 23.5 23.5 23.5h16c13 0 23.5-10.5 23.5-23.5S364.5 256 351.5 256zm0 32h-16c-4.7 0-8.5-3.8-8.5-8.5s3.8-8.5 8.5-8.5h16c4.7 0 8.5 3.8 8.5 8.5s-3.8 8.5-8.5 8.5zm-232 8c-4 0-7.5 3.4-7.5 7.5v48c0 4 3.4 7.5 7.5 7.5s7.5-3.4 7.5-7.5v-48c0-4-3.4-7.5-7.5-7.5zm8-64h-.5V111.5c0-4-3.4-7.5-7.5-7.5s-7.5 3.4-7.5 7.5V232h-.5c-13 0-23.5 10.5-23.5 23.5S98.5 279 111.5 279h16c13 0 23.5-10.5 23.5-23.5S140.5 232 127.5 232zm0 32h-16c-4.7 0-8.5-3.8-8.5-8.5s3.8-8.5 8.5-8.5h16c4.7 0 8.5 3.8 8.5 8.5s-3.8 8.5-8.5 8.5z"/>
</svg>
