<svg xmlns="http://www.w3.org/2000/svg" viewBox="0 0 294.8 294.8">
  <path d="M6 40.8c3.3 0 6-2.7 6-6C12 25.5 19.5 18 28.8 18h53.7l42.2 46c1 1.4 2.7 2 4.4 2h137c9.6 0 17 7.6 17 17 0 3.2 2.8 6 6 6s6-2.8 6-6c0-16-13-29-28.6-29H132L89.5 8c-1-1.3-2.7-2-4.4-2H29C12.8 6 0 19 0 34.8c0 3.3 2.7 6 6 6z"/>
  <path d="M266 94H132L89.5 48c-1-1.3-2.7-2-4.4-2H29C12.8 46 0 59 0 74.8v118.6c0 3.3 2.7 6 6 6s6-2.7 6-6V74.8C12 65.5 19.5 58 28.8 58h53.7l42.2 46.2c1 1.2 2.7 2 4.4 2h137c9.6 0 17 7.4 17 16.7v137c0 9-7.4 17-16.6 17H29c-9.3 0-16.8-8-16.8-17 0-3.5-2.7-6-6-6s-6 2.5-6 6c0 16 13 29 28.8 29h237c16 0 28.8-13 28.8-29V123c0-16-13-29-28.7-29z"/>
</svg>
