<svg xmlns="http://www.w3.org/2000/svg" width="470.6" height="470.6">
  <path d="M327 0H90.3c-16 0-28.8 13-28.8 29v412.7c0 16 13 29 28.8 29h290c16 0 29-13 29-29V89.2L327.3 0zm7 43.2l36 39h-36v-39zm51 398.5c0 2.6-2 4.7-4.7 4.7h-290c-2.6 0-4.7-2-4.7-4.7V29c0-2.7 2-4.8 4.6-4.8h219.4v70.2c0 6.7 5.5 12 12.2 12H385v335.3zM128.4 129H334c5.2 0 9.2 4 9.2 9s-4 9-9 9h-206c-5 0-9-4-9-9s4-9 9-9zm214.8 70c0 5-4 9-9 9h-206c-5 0-9-4-9-9s4-9 9-9H334c5.2 0 9.2 4 9.2 9zm0 59c0 5-4 9-9 9h-206c-5 0-9-4-9-9s4-9 9-9H334c5.2 0 9.2 4 9.2 9zm0 60c0 5-4 9-9 9h-206c-5 0-9-4-9-9s4-9 9-9H334c5.2 0 9.2 4 9.2 9z"/>
</svg>
