<svg xmlns="http://www.w3.org/2000/svg" viewBox="0 0 463 463">
  <path d="M431.5 80H314.8l-30.2-32.7c-9-9.7-21.7-15.3-35-15.3h-218C14 32 0 46 0 63.5v336C0 417 14 431 31.5 431h400c17.4 0 31.5-14 31.5-31.5v-288C463 94 449 80 431.5 80zm-158-22.5l21 22.5h-27.7l-30.2-32.7-.3-.3h13.4c9 0 17.7 3.8 24 10.5zM201.8 47c9 0 17.7 3.8 24 10.5L246.3 80H215l-30-32.7c-.2 0-.3-.2-.4-.3h17zM31.5 47H150c9 0 17.7 3.8 24 10.5L194.6 80h-163c-6 0-11.8 1.7-16.6 4.7V63.5c0-9 7.4-16.5 16.5-16.5zM448 399.5c0 9-7.4 16.5-16.5 16.5h-400c-9 0-16.5-7.4-16.5-16.5v-288c0-9 7.4-16.5 16.5-16.5h400c9 0 16.5 7.4 16.5 16.5v288z"/>
  <path d="M399.5 128h-112c-8.5 0-15.5 7-15.5 15.5v80c0 8.5 7 15.5 15.5 15.5h112c8.5 0 15.5-7 15.5-15.5v-80c0-8.5-7-15.5-15.5-15.5zm.5 95.5c0 .3-.2.5-.5.5h-112c-.3 0-.5-.2-.5-.5v-80c0-.3.2-.5.5-.5h112c.3 0 .5.2.5.5v80z"/>
  <path d="M375.5 160h-64c-4 0-7.5 3.4-7.5 7.5s3.4 7.5 7.5 7.5h64c4 0 7.5-3.4 7.5-7.5s-3.4-7.5-7.5-7.5zm0 32h-64c-4 0-7.5 3.4-7.5 7.5s3.4 7.5 7.5 7.5h64c4 0 7.5-3.4 7.5-7.5s-3.4-7.5-7.5-7.5z"/>
</svg>
