<?xml version="1.0" encoding="UTF-8" standalone="no"?>
<!-- Created with Inkscape (http://www.inkscape.org/) -->

<svg
   xmlns:dc="http://purl.org/dc/elements/1.1/"
   xmlns:cc="http://creativecommons.org/ns#"
   xmlns:rdf="http://www.w3.org/1999/02/22-rdf-syntax-ns#"
   xmlns:svg="http://www.w3.org/2000/svg"
   xmlns="http://www.w3.org/2000/svg"
   xmlns:sodipodi="http://sodipodi.sourceforge.net/DTD/sodipodi-0.dtd"
   xmlns:inkscape="http://www.inkscape.org/namespaces/inkscape"
   width="40mm"
   height="40mm"
   viewBox="0 0 141.73228 141.73228"
   id="svg2"
   version="1.1"
   inkscape:version="0.91 r13725"
   sodipodi:docname="conection-plug.svg">
  <defs
     id="defs4" />
  <sodipodi:namedview
     id="base"
     pagecolor="#ffffff"
     bordercolor="#666666"
     borderopacity="1.0"
     inkscape:pageopacity="0.0"
     inkscape:pageshadow="2"
     inkscape:zoom="1.4"
     inkscape:cx="171.13915"
     inkscape:cy="30.647804"
     inkscape:document-units="px"
     inkscape:current-layer="g3375"
     showgrid="false"
     inkscape:window-width="1366"
     inkscape:window-height="705"
     inkscape:window-x="-8"
     inkscape:window-y="-8"
     inkscape:window-maximized="1" />
  <metadata
     id="metadata7">
    <rdf:RDF>
      <cc:Work
         rdf:about="">
        <dc:format>image/svg+xml</dc:format>
        <dc:type
           rdf:resource="http://purl.org/dc/dcmitype/StillImage" />
        <dc:title />
      </cc:Work>
    </rdf:RDF>
  </metadata>
  <g
     inkscape:label="Camada 1"
     inkscape:groupmode="layer"
     id="layer1"
     transform="translate(0,-910.62992)">
    <g
       id="g3375"
       transform="translate(182.10171,474.46342)">
      <path
         id="path3337"
         d="m -96.648862,617.69833 c -20.741428,18.03485 -54.906648,12.82702 -70.326778,-4.90479 -15.42012,-17.7318 -15.83716,-52.28842 4.90274,-70.32501 l 4.31363,-3.75136 -7.92845,-9.11676 c -0.97267,-1.11843 -0.85435,-2.81558 0.26408,-3.78825 l 59.70018,-51.9186 c 1.11845,-0.97266 2.81559,-0.85434 3.78826,0.26409 l 3.067758,3.52755 32.22934,-28.02841 c -0.49549,-0.70072 -0.62779,-1.60164 -0.34593,-2.42327 0.31257,-0.90703 1.08454,-1.57838 2.02616,-1.76208 l 19.18897,-3.73458 c 0.94162,-0.18375 1.90998,0.15028 2.53904,0.87362 0.62907,0.72335 0.82544,1.72867 0.51288,2.63571 l -6.36108,18.48513 c -0.31257,0.90705 -1.08454,1.57839 -2.02617,1.76208 -0.85381,0.16593 -1.72753,-0.0919 -2.35182,-0.67882 l -32.22933,28.02844 3.06777,3.52756 c 0.97265,1.11845 0.85435,2.81557 -0.2641,3.78824 l -59.700178,51.9186 c -1.11844,0.97267 -2.81557,0.85436 -3.78825,-0.26408 l -7.86677,-9.04585 -4.31361,3.75135 c -18.50455,16.09566 -20.4667,44.24451 -4.3728,62.75055 16.09478,18.50708 44.19969,20.41914 62.7494,4.37557 23.561548,-15.35163 3.525058,4.05337 3.525058,4.05337 z m -47.430098,-71.43428 55.647818,-48.39446 -15.794348,-18.1616 -55.64783,48.39445 7.61657,8.75814 c 0.12266,0.0979 0.23667,0.20877 0.34328,0.33134 0.10662,0.12258 0.19944,0.2518 0.2805,0.38593 z m 84.712068,-96.4096 6.72495,7.73288 3.33447,-9.6896 z m -1.72555,14.48583 4.10402,-3.56908 -6.13466,-7.05411 -4.10401,3.56908 z m -19.78558,17.20665 15.73222,-13.68162 -6.13465,-7.05411 -15.73223,13.68161 z m -8.32959,7.24389 4.27826,-3.72062 -6.13464,-7.05412 -4.27829,3.72061 z"
         inkscape:connector-curvature="0"
         sodipodi:nodetypes="czscsssscccccscccccssssccsccccccscccccccccccccccccccccc"
         style="fill:#333333" />
      <g
         id="g3339"
         transform="translate(-159.28571,-190)" />
      <g
         id="g3341"
         transform="translate(-159.28571,-190)" />
      <g
         id="g3343"
         transform="translate(-159.28571,-190)" />
      <g
         id="g3345"
         transform="translate(-159.28571,-190)" />
      <g
         id="g3347"
         transform="translate(-159.28571,-190)" />
      <g
         id="g3349"
         transform="translate(-159.28571,-190)" />
      <g
         id="g3351"
         transform="translate(-159.28571,-190)" />
      <g
         id="g3353"
         transform="translate(-159.28571,-190)" />
      <g
         id="g3355"
         transform="translate(-159.28571,-190)" />
      <g
         id="g3357"
         transform="translate(-159.28571,-190)" />
      <g
         id="g3359"
         transform="translate(-159.28571,-190)" />
      <g
         id="g3361"
         transform="translate(-159.28571,-190)" />
      <g
         id="g3363"
         transform="translate(-159.28571,-190)" />
      <g
         id="g3365"
         transform="translate(-159.28571,-190)" />
      <g
         id="g3367"
         transform="translate(-159.28571,-190)" />
    </g>
  </g>
</svg>
