<svg xmlns="http://www.w3.org/2000/svg" viewBox="0 0 570 720">
  <path d="M158.4 1.7c-3.6 0-7.5 1.4-12 5C135.6 2.3 125 1 115.7 9.4c-14.5-2-19.2 2-22.8 6.5-4 0-24-4-34 10-24-3-31 14-23 30-5 7-10 15 1 29-4 8-2 16 8 27-2 11 3 19 11 25-2 15 14 24 19 27 2 9 5 17 23 22 3 13 14 15 24 18-35 20-65 47-64 112l-5 9c-40 24-76 101-20 164 3 20 9 34 15 50 8 63 61 92 75 96 20 15 42 30 72 41 28 28 58 39 88 39h1.4c30.4 0 60.6-11 88.5-39.8 29.3-10.4 51-25 72-41 14-3.4 67-33 75-96 5.3-15.7 11.4-30 15-49.6 55.4-63 20-140.8-20-165l-5-9c.3-65-29.4-91-64-111 10.5-3 21.3-5 24.3-18.8 18-5 21.4-13 23.2-22 4.5-4 20.2-12 18.6-28 9-6 14-14 11.5-25.8 9.6-10.4 12-19 8-27 12-13 7-20.3 2-28 9-15 2-32-22-29-9.3-14-30-11-33.2-11-3.7-4.4-8.4-8.3-23-6.4-8.5-8-19-6.3-30-2.3-12.8-10-21.3-2-31 1-15.6-5-19.2 2-26.8 4.7-16.8-3.2-22 4.5-30 12.8h-9c-25.3 15-38 45-42.3 61-4.7-16-17.4-47-43-62H234c-8-7-13-15-30-11.3-7.7-3-11.3-9-27-4-6.3-2-12-6-19-6z" class="fill"/>
  <path fill="#75a928" d="M107.4 68c68 35 107.4 63.4 129 87.6-11 44.4-68.8 46.4-90 45.2 4.4-2 8-4.5 9.3-8.2-5.3-3.7-24-.4-37.3-7.8 5-1 7.4-2 9.8-5.7-12.4-4-25.8-7-33.6-14 4.2 1 8.2 1 13.7-2-11-6-23-11-32.2-20 6 0 12 0 14-2-10-6-19-13-26-21 8 1 12 0 14-1-7-8-17-14-22-24 6 2 12 3 16 0-2-6-14-9-20-23 7 1 13 1 15 0-3-12-8-19-13-25 14 0 34 0 33-1l-9-8c13-3 27 1 36 4 5-3.2 0-8-5-12 11 1.4 22 4 31 7.5 4.7-4.5-3.3-9-7-13.3 17 3.5 24.4 8 31.6 12.7 5.3-5 .3-9.5-3.2-14C172 25 179 31 186 37c2.5-3 6-5.4 1.8-13.2C197 29 204 35 209 42c5.7-3.6 3.4-8.6 3.4-13.2 9.6 7.8 15.7 16 23.2 24.2 1.5-1 2.8-4.8 4-10.6 23 22.2 55.2 78 8.3 100.3-40-33-88-57-141-75zM468 68c-68 35-107.5 63.4-129.2 87.6 11 44.4 69 46.4 90 45.2-4.3-2-8-4.5-9-8.2 5.2-3.7 24-.4 37-7.8-5-1-7.3-2-9.7-5.7 13-4 26-7 34-14-4 1-8 1-14-2 11-6 23-11 33-20-5 0-12 0-13-2 10-6 19-13 26-21-8 1-11 0-13-1 8-8 18-14 22-24-6 2-11 3-15 0 3-6 14-9 21-23-6.2 1-13 1-14.2 0 3-12 8-19 13-25-13.5 0-34 0-33-1l8-8c-13-3-26.7 1-36.5 4-4.3-3 0-8 5.5-12-11.4 1.6-21.5 4-30.6 7.7-5-4 3-8.5 7-13-17.2 3-24.6 8-32 12.6-5-5 0-9.4 3.4-14-13 4.7-20 11-27 17-2.3-3.3-6-5.6-1.5-13.4-9.7 5-16.6 11.3-22 18.3-5.5-4-3-9-3-13-9.7 7.3-16 16-23 24-2-1-3-5-4-11-23 22-55 78-8 100 40-33 88-57 140.4-75z" class="leaf"/>
  <path fill="#bc1142" d="M370 520.4a81.4 75 0 1 1-162.8 0 81.4 75 0 1 1 162.7 0zM241.5 306a86 73-56 1 1-95 143.7 86 73-56 1 1 95-143.7z" class="body"/>
  <path fill="#bc1142" d="M332.5 302a73 86-34 1 1 95 143.7 73 86-34 1 1-95-143.7zM73 342c36.3-9.7 12.2 150.7-17.4 137.6C23 453.3 12.6 376.6 73 342z" class="body"/>
  <path fill="#bc1142" d="M493.7 340c-36.4-9.7-12.3 150.7 17.3 137.6 32.6-26.2 43-103-17.3-137.5zM370 220.7c62.8-10.7 115 26.7 113 94.8-2 26-136.2-91-113-94.8zm-173.6-2c-63-10.7-115.2 26.7-113 94.8 2 26 136-91 113-95zm90.2-16c-37.5-1-73.5 28-73.6 44.6 0 20.3 29.7 41 74 41.6 45 0 73.8-17 74-38 0-24-41-49-74.4-49zM289 619c32.6-1.3 76.5 10.7 76.6 26.5.5 15.4-39.8 50.2-79 49.6-40.3 2-80-33-79.4-45-.6-18 49.2-31 81.7-31zm-121-94c23.4 28 34 77.4 14.6 92-18.4 11-63 6.5-94.7-39-22-38.4-19-77.3-4-88.7 22-13.7 57 4.8 84 35.8zm237-8.8c-25.2 29.5-39.2 83.3-20.8 100.6 17.5 13.5 64.7 11.6 99.5-36.7 25.3-32 17-86 2.4-101-21-16-52 5-81 38z" class="body"/>
</svg>
